M48
; DRILL file {KiCad 7.0.1} date Sun May 14 18:13:31 2023
; FORMAT={-:-/ absolute / inch / decimal}
; #@! TF.CreationDate,2023-05-14T18:13:31-07:00
; #@! TF.GenerationSoftware,Kicad,Pcbnew,7.0.1
; #@! TF.FileFunction,Plated,1,2,PTH
FMAT,2
INCH
; #@! TA.AperFunction,Plated,PTH,ViaDrill
T1C0.0157
; #@! TA.AperFunction,Plated,PTH,ComponentDrill
T2C0.0295
; #@! TA.AperFunction,Plated,PTH,ComponentDrill
T3C0.0315
; #@! TA.AperFunction,Plated,PTH,ComponentDrill
T4C0.0354
; #@! TA.AperFunction,Plated,PTH,ComponentDrill
T5C0.0394
; #@! TA.AperFunction,Plated,PTH,ComponentDrill
T6C0.0433
; #@! TA.AperFunction,Plated,PTH,ComponentDrill
T7C0.0504
; #@! TA.AperFunction,Plated,PTH,ComponentDrill
T8C0.0512
; #@! TA.AperFunction,Plated,PTH,ComponentDrill
T9C0.0551
%
G90
G05
T1
X6.1291Y-4.3343
X6.2943Y-3.9708
T2
X4.2599Y-2.4734
X4.2761Y-4.1301
X4.2761Y-4.5514
X4.2872Y-3.5181
X4.2872Y-3.9394
X4.291Y-2.9691
X4.291Y-3.3903
X4.3099Y-2.4734
X4.3599Y-2.4734
X4.8123Y-2.4734
X4.8623Y-2.4734
X4.9123Y-2.4734
X5.0307Y-4.5477
X5.0346Y-3.9307
X5.0381Y-3.3806
X5.0807Y-4.5477
X5.0846Y-3.9307
X5.0881Y-3.3806
X5.1307Y-4.5477
X5.1346Y-3.9307
X5.1381Y-3.3806
X5.3585Y-2.4734
X5.4085Y-2.4734
X5.4585Y-2.4734
T3
X4.0811Y-5.1195
X4.0811Y-5.2195
X4.2387Y-2.2226
X4.2673Y-2.7084
X4.2673Y-2.8084
X4.3767Y-2.7122
X4.3767Y-2.8122
X4.4356Y-2.2226
X4.5788Y-2.2226
X4.5792Y-2.4592
X4.6163Y-4.501
X4.6165Y-3.3391
X4.6182Y-3.8826
X4.6767Y-2.7122
X4.6767Y-2.8122
X4.6788Y-2.2226
X4.6792Y-2.4592
X4.7163Y-4.501
X4.7165Y-3.3391
X4.7182Y-3.8826
X4.7942Y-2.2226
X4.8215Y-4.501
X4.824Y-3.8826
X4.8242Y-3.3345
X4.8458Y-2.7047
X4.8458Y-2.8047
X4.9215Y-4.501
X4.924Y-3.8826
X4.9242Y-3.3345
X4.991Y-2.2226
X5.0267Y-2.7095
X5.0267Y-2.8095
X5.1223Y-2.4592
X5.1265Y-2.2226
X5.1397Y-2.7152
X5.1397Y-2.8152
X5.19Y-5.0417
X5.19Y-5.2417
X5.2223Y-2.4592
X5.2265Y-2.2226
X5.3058Y-4.942
X5.3125Y-5.3672
X5.3128Y-5.6732
X5.3154Y-4.4615
X5.3154Y-4.5615
X5.3177Y-3.8584
X5.3177Y-3.9584
X5.3181Y-3.3006
X5.3181Y-3.4006
X5.3342Y-2.2226
X5.4397Y-2.7152
X5.4397Y-2.8152
X5.4506Y-5.6732
X5.5027Y-4.942
X5.5311Y-2.2226
X5.6081Y-2.7055
X5.6081Y-2.8055
X5.6731Y-2.4592
X5.6743Y-2.2226
X5.7019Y-4.5875
X5.7125Y-5.3672
X5.7413Y-5.1389
X5.7503Y-3.9411
X5.7731Y-2.4592
X5.7743Y-2.2226
X5.8468Y-3.1993
X5.852Y-3.0077
X5.8815Y-5.4455
X5.8987Y-4.5875
X5.9381Y-5.1389
X5.9468Y-3.1993
X5.9472Y-3.9411
X5.952Y-3.0077
X5.9534Y-2.6743
X5.9572Y-2.0823
X5.9664Y-2.2531
X5.9664Y-2.5531
X5.9806Y-4.1677
X5.9806Y-4.3599
X6.0193Y-5.4455
X6.0534Y-2.6743
X6.0572Y-2.0823
X6.0664Y-2.2531
X6.0664Y-2.5531
X6.2185Y-3.3816
X6.2185Y-3.4816
X6.2185Y-3.5816
X6.2185Y-3.6816
X6.2185Y-3.7816
X6.2185Y-3.8816
X6.2185Y-3.9816
X6.2185Y-4.0816
X6.2185Y-4.1816
X6.2185Y-4.2816
X6.2185Y-4.3816
X6.2185Y-4.4816
X6.2185Y-4.5816
X6.2185Y-4.6816
X6.5185Y-3.3816
X6.5185Y-3.4816
X6.5185Y-3.5816
X6.5185Y-3.6816
X6.5185Y-3.7816
X6.5185Y-3.8816
X6.5185Y-3.9816
X6.5185Y-4.0816
X6.5185Y-4.1816
X6.5185Y-4.2816
X6.5185Y-4.3816
X6.5185Y-4.4816
X6.5185Y-4.5816
X6.5185Y-4.6816
T4
X6.0498Y-3.1674
X6.1498Y-3.1674
T5
X5.8532Y-3.4832
X5.8532Y-3.5832
X5.8532Y-3.6832
X5.9532Y-3.4832
X5.9532Y-3.5832
X5.9532Y-3.6832
X6.2746Y-2.9314
X6.2746Y-3.1873
X6.3049Y-5.2731
X6.3049Y-5.3731
X6.3049Y-5.4731
X6.4518Y-2.9314
X6.4518Y-3.1873
X6.8507Y-3.3844
X6.8507Y-3.4844
X6.8507Y-3.5844
X6.8507Y-3.6844
X6.8507Y-3.7844
X6.8507Y-3.8844
X6.8507Y-3.9844
X6.8507Y-4.0844
X6.8507Y-4.3416
X6.8507Y-4.4416
X6.8507Y-4.5416
T6
X4.2433Y-2.0118
X4.6433Y-2.0118
X4.7987Y-2.0118
X5.1987Y-2.0118
X5.3405Y-2.0118
X5.6135Y-4.9451
X5.7405Y-2.0118
X6.0135Y-4.9451
T7
X4.263Y-5.2133
X4.363Y-5.2133
X4.4144Y-3.0806
X4.4144Y-3.1806
X4.4144Y-3.2806
X4.4154Y-4.2422
X4.4154Y-4.3422
X4.4154Y-4.4422
X4.4163Y-3.624
X4.4163Y-3.724
X4.4163Y-3.824
X4.463Y-5.2133
T8
X3.9082Y-4.6622
X3.9082Y-4.8622
X3.9179Y-3.3853
X3.9179Y-3.5853
X3.9179Y-3.7853
X3.9198Y-2.4008
X3.9198Y-2.6008
X3.9198Y-2.8008
X4.6257Y-3.0975
X4.627Y-4.2398
X4.6366Y-3.6252
X5.2257Y-3.0975
X5.227Y-4.2398
X5.2366Y-3.6252
T9
X4.2003Y-5.447
X4.2003Y-5.5455
X4.3381Y-5.447
X4.3381Y-5.5455
X4.5664Y-5.447
X4.5664Y-5.5455
X4.7042Y-5.447
X4.7042Y-5.5455
T0
M30
