%TF.GenerationSoftware,KiCad,Pcbnew,7.0.1*%
%TF.CreationDate,2023-05-14T18:13:28-07:00*%
%TF.ProjectId,BasicBitch328pThingy,42617369-6342-4697-9463-683332387054,rev?*%
%TF.SameCoordinates,Original*%
%TF.FileFunction,Copper,L2,Bot*%
%TF.FilePolarity,Positive*%
%FSLAX46Y46*%
G04 Gerber Fmt 4.6, Leading zero omitted, Abs format (unit mm)*
G04 Created by KiCad (PCBNEW 7.0.1) date 2023-05-14 18:13:28*
%MOMM*%
%LPD*%
G01*
G04 APERTURE LIST*
%TA.AperFunction,ComponentPad*%
%ADD10R,1.050000X1.500000*%
%TD*%
%TA.AperFunction,ComponentPad*%
%ADD11O,1.050000X1.500000*%
%TD*%
%TA.AperFunction,ComponentPad*%
%ADD12C,1.600000*%
%TD*%
%TA.AperFunction,ComponentPad*%
%ADD13O,1.600000X1.600000*%
%TD*%
%TA.AperFunction,ComponentPad*%
%ADD14R,2.600000X2.600000*%
%TD*%
%TA.AperFunction,ComponentPad*%
%ADD15C,2.600000*%
%TD*%
%TA.AperFunction,ComponentPad*%
%ADD16R,1.700000X1.700000*%
%TD*%
%TA.AperFunction,ComponentPad*%
%ADD17O,1.700000X1.700000*%
%TD*%
%TA.AperFunction,ComponentPad*%
%ADD18R,1.600000X1.600000*%
%TD*%
%TA.AperFunction,ComponentPad*%
%ADD19O,2.600000X2.600000*%
%TD*%
%TA.AperFunction,ComponentPad*%
%ADD20R,1.150000X1.150000*%
%TD*%
%TA.AperFunction,ComponentPad*%
%ADD21C,1.150000*%
%TD*%
%TA.AperFunction,ComponentPad*%
%ADD22R,1.500000X1.500000*%
%TD*%
%TA.AperFunction,ComponentPad*%
%ADD23C,1.500000*%
%TD*%
%TA.AperFunction,ComponentPad*%
%ADD24R,1.920000X1.920000*%
%TD*%
%TA.AperFunction,ComponentPad*%
%ADD25C,1.920000*%
%TD*%
%TA.AperFunction,ComponentPad*%
%ADD26R,1.800000X1.800000*%
%TD*%
%TA.AperFunction,ComponentPad*%
%ADD27C,1.800000*%
%TD*%
%TA.AperFunction,ComponentPad*%
%ADD28C,2.100000*%
%TD*%
%TA.AperFunction,ComponentPad*%
%ADD29R,2.200000X2.200000*%
%TD*%
%TA.AperFunction,ComponentPad*%
%ADD30O,2.200000X2.200000*%
%TD*%
%TA.AperFunction,ViaPad*%
%ADD31C,0.800000*%
%TD*%
%TA.AperFunction,Conductor*%
%ADD32C,0.250000*%
%TD*%
%TA.AperFunction,Conductor*%
%ADD33C,1.270000*%
%TD*%
%TA.AperFunction,Conductor*%
%ADD34C,0.635000*%
%TD*%
G04 APERTURE END LIST*
D10*
%TO.P,Q4,1,S*%
%TO.N,GND*%
X122231400Y-62823200D03*
D11*
%TO.P,Q4,2,G*%
%TO.N,Net-(D3-A)*%
X123501400Y-62823200D03*
%TO.P,Q4,3,D*%
%TO.N,Net-(Q4-D)*%
X124771400Y-62823200D03*
%TD*%
D12*
%TO.P,R12,1*%
%TO.N,Net-(Q7-Pad1)*%
X122529500Y-98617400D03*
D13*
%TO.P,R12,2*%
%TO.N,Net-(Q6-D)*%
X125069500Y-98617400D03*
%TD*%
D14*
%TO.P,P1,1,Pin_1*%
%TO.N,Net-(P1-Pin_1)*%
X99267300Y-118419900D03*
D15*
%TO.P,P1,2,Pin_2*%
%TO.N,GND*%
X99267300Y-123499900D03*
%TD*%
D16*
%TO.P,J4,1,Pin_1*%
%TO.N,D8*%
X174006800Y-103743400D03*
D17*
%TO.P,J4,2,Pin_2*%
%TO.N,D10*%
X174006800Y-101203400D03*
%TO.P,J4,3,Pin_3*%
%TO.N,A0*%
X174006800Y-98663400D03*
%TO.P,J4,4,Pin_4*%
%TO.N,A1*%
X174006800Y-96123400D03*
%TO.P,J4,5,Pin_5*%
%TO.N,A2*%
X174006800Y-93583400D03*
%TO.P,J4,6,Pin_6*%
%TO.N,A3*%
X174006800Y-91043400D03*
%TO.P,J4,7,Pin_7*%
%TO.N,A4*%
X174006800Y-88503400D03*
%TO.P,J4,8,Pin_8*%
%TO.N,A5*%
X174006800Y-85963400D03*
%TD*%
D12*
%TO.P,C5,1*%
%TO.N,Net-(IC1-~{SHUTDOWN}{slash}SOFT-START)*%
X145828600Y-130529000D03*
%TO.P,C5,2*%
%TO.N,GND*%
X150828600Y-130529000D03*
%TD*%
D18*
%TO.P,C7,1*%
%TO.N,+5V*%
X134946200Y-144099100D03*
D12*
%TO.P,C7,2*%
%TO.N,GND*%
X138446200Y-144099100D03*
%TD*%
%TO.P,R15,1*%
%TO.N,Net-(D7-K)*%
X148641100Y-76394400D03*
D13*
%TO.P,R15,2*%
%TO.N,GND*%
X151181100Y-76394400D03*
%TD*%
D14*
%TO.P,D2,1,K*%
%TO.N,/Output/Output*%
X117493300Y-78676900D03*
D19*
%TO.P,D2,2,A*%
%TO.N,GND*%
X132733300Y-78676900D03*
%TD*%
D20*
%TO.P,Z1,1*%
%TO.N,+VDC*%
X108992100Y-86114500D03*
D21*
%TO.P,Z1,2*%
%TO.N,Net-(Q3-Pad1)*%
X108992100Y-75414500D03*
%TD*%
D12*
%TO.P,R8,1*%
%TO.N,/Input2/Input*%
X144126800Y-56452900D03*
D13*
%TO.P,R8,2*%
%TO.N,Net-(D4-A)*%
X146666800Y-56452900D03*
%TD*%
D22*
%TO.P,S1,1,NO_1*%
%TO.N,Reset*%
X159376100Y-80957600D03*
D23*
%TO.P,S1,2,NO_2*%
%TO.N,unconnected-(S1-NO_2-Pad2)*%
X159376100Y-74457600D03*
%TO.P,S1,3,COM_1*%
%TO.N,GND*%
X163876100Y-80957600D03*
%TO.P,S1,4,COM_2*%
%TO.N,unconnected-(S1-COM_2-Pad4)*%
X163876100Y-74457600D03*
%TD*%
D12*
%TO.P,R23,1*%
%TO.N,+5V*%
X108389200Y-71333400D03*
D13*
%TO.P,R23,2*%
%TO.N,Net-(R23-Pad2)*%
X108389200Y-68793400D03*
%TD*%
D24*
%TO.P,Q10,1*%
%TO.N,Net-(Q10-Pad1)*%
X112151800Y-107751900D03*
D25*
%TO.P,Q10,2*%
%TO.N,/Output2/Output*%
X112151800Y-110291900D03*
%TO.P,Q10,3*%
%TO.N,+VDC*%
X112151800Y-112831900D03*
%TD*%
D18*
%TO.P,C6,1*%
%TO.N,+VDC*%
X149389100Y-138315000D03*
D12*
%TO.P,C6,2*%
%TO.N,GND*%
X152889100Y-138315000D03*
%TD*%
D24*
%TO.P,Q7,1*%
%TO.N,Net-(Q7-Pad1)*%
X112173000Y-92048800D03*
D25*
%TO.P,Q7,2*%
%TO.N,/Output1/Output*%
X112173000Y-94588800D03*
%TO.P,Q7,3*%
%TO.N,+VDC*%
X112173000Y-97128800D03*
%TD*%
D12*
%TO.P,R13,1*%
%TO.N,Net-(Q8-Pad1)*%
X103661100Y-132576500D03*
D13*
%TO.P,R13,2*%
%TO.N,GND*%
X103661100Y-130036500D03*
%TD*%
D12*
%TO.P,R11,1*%
%TO.N,+VDC*%
X117301200Y-98617400D03*
D13*
%TO.P,R11,2*%
%TO.N,Net-(Q7-Pad1)*%
X119841200Y-98617400D03*
%TD*%
D24*
%TO.P,Q3,1*%
%TO.N,Net-(Q3-Pad1)*%
X112126700Y-78247700D03*
D25*
%TO.P,Q3,2*%
%TO.N,/Output/Output*%
X112126700Y-80787700D03*
%TO.P,Q3,3*%
%TO.N,+VDC*%
X112126700Y-83327700D03*
%TD*%
D20*
%TO.P,Z3,1*%
%TO.N,+VDC*%
X108613400Y-115605500D03*
D21*
%TO.P,Z3,2*%
%TO.N,Net-(Q10-Pad1)*%
X108613400Y-104905500D03*
%TD*%
D12*
%TO.P,C1,1*%
%TO.N,/Input/Input*%
X107663600Y-56452900D03*
%TO.P,C1,2*%
%TO.N,GND*%
X112663600Y-56452900D03*
%TD*%
D18*
%TO.P,U4,1*%
%TO.N,Net-(R24-Pad2)*%
X130547400Y-68965700D03*
D13*
%TO.P,U4,2*%
%TO.N,Net-(Q4-D)*%
X130547400Y-71505700D03*
%TO.P,U4,3*%
%TO.N,GND*%
X138167400Y-71505700D03*
%TO.P,U4,4*%
%TO.N,Input2*%
X138167400Y-68965700D03*
%TD*%
D18*
%TO.P,U1,1,~{RESET}/PC6*%
%TO.N,Reset*%
X157950500Y-85892000D03*
D13*
%TO.P,U1,2,PD0*%
%TO.N,RXttl*%
X157950500Y-88432000D03*
%TO.P,U1,3,PD1*%
%TO.N,TXttl*%
X157950500Y-90972000D03*
%TO.P,U1,4,PD2*%
%TO.N,Input3*%
X157950500Y-93512000D03*
%TO.P,U1,5,PD3*%
%TO.N,Input1*%
X157950500Y-96052000D03*
%TO.P,U1,6,PD4*%
%TO.N,Input2*%
X157950500Y-98592000D03*
%TO.P,U1,7,VCC*%
%TO.N,+5V*%
X157950500Y-101132000D03*
%TO.P,U1,8,GND*%
%TO.N,GND*%
X157950500Y-103672000D03*
%TO.P,U1,9,XTAL1/PB6*%
%TO.N,Net-(U1-XTAL1{slash}PB6)*%
X157950500Y-106212000D03*
%TO.P,U1,10,XTAL2/PB7*%
%TO.N,Net-(U1-XTAL2{slash}PB7)*%
X157950500Y-108752000D03*
%TO.P,U1,11,PD5*%
%TO.N,Output1*%
X157950500Y-111292000D03*
%TO.P,U1,12,PD6*%
%TO.N,Output2*%
X157950500Y-113832000D03*
%TO.P,U1,13,PD7*%
%TO.N,LED*%
X157950500Y-116372000D03*
%TO.P,U1,14,PB0*%
%TO.N,D8*%
X157950500Y-118912000D03*
%TO.P,U1,15,PB1*%
%TO.N,Output3*%
X165570500Y-118912000D03*
%TO.P,U1,16,PB2*%
%TO.N,D10*%
X165570500Y-116372000D03*
%TO.P,U1,17,PB3*%
%TO.N,MOSI*%
X165570500Y-113832000D03*
%TO.P,U1,18,PB4*%
%TO.N,MISO*%
X165570500Y-111292000D03*
%TO.P,U1,19,PB5*%
%TO.N,SCK*%
X165570500Y-108752000D03*
%TO.P,U1,20,AVCC*%
%TO.N,+5V*%
X165570500Y-106212000D03*
%TO.P,U1,21,AREF*%
X165570500Y-103672000D03*
%TO.P,U1,22,GND*%
%TO.N,GND*%
X165570500Y-101132000D03*
%TO.P,U1,23,PC0*%
%TO.N,A0*%
X165570500Y-98592000D03*
%TO.P,U1,24,PC1*%
%TO.N,A1*%
X165570500Y-96052000D03*
%TO.P,U1,25,PC2*%
%TO.N,A2*%
X165570500Y-93512000D03*
%TO.P,U1,26,PC3*%
%TO.N,A3*%
X165570500Y-90972000D03*
%TO.P,U1,27,PC4*%
%TO.N,A4*%
X165570500Y-88432000D03*
%TO.P,U1,28,PC5*%
%TO.N,A5*%
X165570500Y-85892000D03*
%TD*%
D26*
%TO.P,D7,1,K*%
%TO.N,Net-(D7-K)*%
X153666000Y-80451800D03*
D27*
%TO.P,D7,2,A*%
%TO.N,LED*%
X156206000Y-80451800D03*
%TD*%
D16*
%TO.P,J1,1,Pin_1*%
%TO.N,+VDC*%
X160144200Y-133936100D03*
D17*
%TO.P,J1,2,Pin_2*%
%TO.N,+5V*%
X160144200Y-136476100D03*
%TO.P,J1,3,Pin_3*%
%TO.N,GND*%
X160144200Y-139016100D03*
%TD*%
D10*
%TO.P,Q6,1,S*%
%TO.N,GND*%
X127879000Y-99839800D03*
D11*
%TO.P,Q6,2,G*%
%TO.N,Output2*%
X129149000Y-99839800D03*
%TO.P,Q6,3,D*%
%TO.N,Net-(Q6-D)*%
X130419000Y-99839800D03*
%TD*%
D10*
%TO.P,Q2,1,S*%
%TO.N,GND*%
X127966500Y-85867900D03*
D11*
%TO.P,Q2,2,G*%
%TO.N,Output1*%
X129236500Y-85867900D03*
%TO.P,Q2,3,D*%
%TO.N,Net-(Q2-D)*%
X130506500Y-85867900D03*
%TD*%
D18*
%TO.P,U3,1*%
%TO.N,Net-(R23-Pad2)*%
X111168000Y-68889200D03*
D13*
%TO.P,U3,2*%
%TO.N,Net-(Q1-D)*%
X111168000Y-71429200D03*
%TO.P,U3,3*%
%TO.N,GND*%
X118788000Y-71429200D03*
%TO.P,U3,4*%
%TO.N,Input1*%
X118788000Y-68889200D03*
%TD*%
D12*
%TO.P,R25,1*%
%TO.N,+5V*%
X153755200Y-67926700D03*
D13*
%TO.P,R25,2*%
%TO.N,Net-(R25-Pad2)*%
X151215200Y-67926700D03*
%TD*%
D24*
%TO.P,Q8,1*%
%TO.N,Net-(Q8-Pad1)*%
X108280000Y-132418500D03*
D25*
%TO.P,Q8,2*%
%TO.N,Net-(P1-Pin_1)*%
X110820000Y-132418500D03*
%TO.P,Q8,3*%
%TO.N,Net-(Q8-Pad3)*%
X113360000Y-132418500D03*
%TD*%
D20*
%TO.P,Z2,1*%
%TO.N,+VDC*%
X108894000Y-100059500D03*
D21*
%TO.P,Z2,2*%
%TO.N,Net-(Q7-Pad1)*%
X108894000Y-89359500D03*
%TD*%
D12*
%TO.P,C3,1*%
%TO.N,/Input2/Input*%
X135489800Y-56452900D03*
%TO.P,C3,2*%
%TO.N,GND*%
X140489800Y-56452900D03*
%TD*%
%TO.P,R9,1*%
%TO.N,Net-(D4-A)*%
X144097800Y-62463200D03*
D13*
%TO.P,R9,2*%
%TO.N,GND*%
X146637800Y-62463200D03*
%TD*%
D28*
%TO.P,U2,1,1*%
%TO.N,+VDC*%
X119487100Y-138354600D03*
%TO.P,U2,2,2*%
X115987100Y-138354600D03*
%TO.P,U2,3,3*%
%TO.N,Net-(Q8-Pad3)*%
X110187100Y-138354600D03*
%TO.P,U2,4,4*%
X106687100Y-138354600D03*
%TO.P,U2,5,5*%
X106687100Y-140854600D03*
%TO.P,U2,6,6*%
X110187100Y-140854600D03*
%TO.P,U2,7,7*%
%TO.N,+VDC*%
X115987100Y-140854600D03*
%TO.P,U2,8,8*%
X119487100Y-140854600D03*
%TD*%
D10*
%TO.P,Q5,1,S*%
%TO.N,GND*%
X136105400Y-62823200D03*
D11*
%TO.P,Q5,2,G*%
%TO.N,Net-(D4-A)*%
X137375400Y-62823200D03*
%TO.P,Q5,3,D*%
%TO.N,Net-(Q5-D)*%
X138645400Y-62823200D03*
%TD*%
D16*
%TO.P,J3,1,Pin_1*%
%TO.N,MISO*%
X148671400Y-88472200D03*
D17*
%TO.P,J3,2,Pin_2*%
%TO.N,+5V*%
X151211400Y-88472200D03*
%TO.P,J3,3,Pin_3*%
%TO.N,SCK*%
X148671400Y-91012200D03*
%TO.P,J3,4,Pin_4*%
%TO.N,MOSI*%
X151211400Y-91012200D03*
%TO.P,J3,5,Pin_5*%
%TO.N,Reset*%
X148671400Y-93552200D03*
%TO.P,J3,6,Pin_6*%
%TO.N,GND*%
X151211400Y-93552200D03*
%TD*%
D14*
%TO.P,D5,1,K*%
%TO.N,/Output1/Output*%
X117768900Y-92079500D03*
D19*
%TO.P,D5,2,A*%
%TO.N,GND*%
X133008900Y-92079500D03*
%TD*%
D12*
%TO.P,R5,1*%
%TO.N,Net-(Q3-Pad1)*%
X122534200Y-84695500D03*
D13*
%TO.P,R5,2*%
%TO.N,Net-(Q2-D)*%
X125074200Y-84695500D03*
%TD*%
D12*
%TO.P,R1,1*%
%TO.N,/Input/Input*%
X116300600Y-56452900D03*
D13*
%TO.P,R1,2*%
%TO.N,Net-(D1-A)*%
X118840600Y-56452900D03*
%TD*%
D10*
%TO.P,Q9,1,S*%
%TO.N,GND*%
X127780000Y-115511100D03*
D11*
%TO.P,Q9,2,G*%
%TO.N,Output3*%
X129050000Y-115511100D03*
%TO.P,Q9,3,D*%
%TO.N,Net-(Q9-D)*%
X130320000Y-115511100D03*
%TD*%
D12*
%TO.P,R20,1*%
%TO.N,+5V*%
X123083900Y-71239000D03*
D13*
%TO.P,R20,2*%
%TO.N,Input1*%
X123083900Y-68699000D03*
%TD*%
D12*
%TO.P,C4,1*%
%TO.N,Net-(IC1-DELAY)*%
X134768500Y-125526600D03*
%TO.P,C4,2*%
%TO.N,GND*%
X139768500Y-125526600D03*
%TD*%
%TO.P,R4,1*%
%TO.N,+VDC*%
X117258100Y-84812700D03*
D13*
%TO.P,R4,2*%
%TO.N,Net-(Q3-Pad1)*%
X119798100Y-84812700D03*
%TD*%
D14*
%TO.P,Z4,1,Pin_1*%
%TO.N,/Input/Input*%
X99561700Y-60980800D03*
D15*
%TO.P,Z4,2,Pin_2*%
%TO.N,/Input1/Input*%
X99561700Y-66060800D03*
%TO.P,Z4,3,Pin_3*%
%TO.N,/Input2/Input*%
X99561700Y-71140800D03*
%TD*%
D12*
%TO.P,R21,1*%
%TO.N,+5V*%
X142445500Y-71260100D03*
D13*
%TO.P,R21,2*%
%TO.N,Input2*%
X142445500Y-68720100D03*
%TD*%
D12*
%TO.P,R7,1*%
%TO.N,Net-(D3-A)*%
X130106200Y-62463200D03*
D13*
%TO.P,R7,2*%
%TO.N,GND*%
X132646200Y-62463200D03*
%TD*%
D18*
%TO.P,U5,1*%
%TO.N,Net-(R25-Pad2)*%
X151546000Y-64849700D03*
D13*
%TO.P,U5,2*%
%TO.N,Net-(Q5-D)*%
X154086000Y-64849700D03*
%TO.P,U5,3*%
%TO.N,GND*%
X154086000Y-57229700D03*
%TO.P,U5,4*%
%TO.N,Input3*%
X151546000Y-57229700D03*
%TD*%
D29*
%TO.P,D1,1,K*%
%TO.N,/Input/Input*%
X107780800Y-51098700D03*
D30*
%TO.P,D1,2,A*%
%TO.N,Net-(D1-A)*%
X117940800Y-51098700D03*
%TD*%
D12*
%TO.P,R18,1*%
%TO.N,+VDC*%
X117254000Y-114325600D03*
D13*
%TO.P,R18,2*%
%TO.N,Net-(Q10-Pad1)*%
X119794000Y-114325600D03*
%TD*%
D12*
%TO.P,R19,1*%
%TO.N,Net-(Q10-Pad1)*%
X122464900Y-114325600D03*
D13*
%TO.P,R19,2*%
%TO.N,Net-(Q9-D)*%
X125004900Y-114325600D03*
%TD*%
D12*
%TO.P,C9,1*%
%TO.N,Net-(U1-XTAL2{slash}PB7)*%
X149827500Y-116521900D03*
%TO.P,C9,2*%
%TO.N,GND*%
X144827500Y-116521900D03*
%TD*%
%TO.P,R17,1*%
%TO.N,Output3*%
X135009900Y-115862800D03*
D13*
%TO.P,R17,2*%
%TO.N,GND*%
X135009900Y-113322800D03*
%TD*%
D29*
%TO.P,D4,1,K*%
%TO.N,/Input2/Input*%
X135649100Y-51098700D03*
D30*
%TO.P,D4,2,A*%
%TO.N,Net-(D4-A)*%
X145809100Y-51098700D03*
%TD*%
D16*
%TO.P,J2,1,Pin_1*%
%TO.N,RXttl*%
X174006800Y-110277800D03*
D17*
%TO.P,J2,2,Pin_2*%
%TO.N,TXttl*%
X174006800Y-112817800D03*
%TO.P,J2,3,Pin_3*%
%TO.N,GND*%
X174006800Y-115357800D03*
%TD*%
D12*
%TO.P,C2,1*%
%TO.N,/Input1/Input*%
X121772100Y-56452900D03*
%TO.P,C2,2*%
%TO.N,GND*%
X126772100Y-56452900D03*
%TD*%
D14*
%TO.P,Z5,1,Pin_1*%
%TO.N,/Output/Output*%
X99515000Y-85987000D03*
D15*
%TO.P,Z5,2,Pin_2*%
%TO.N,/Output1/Output*%
X99515000Y-91067000D03*
%TO.P,Z5,3,Pin_3*%
%TO.N,/Output2/Output*%
X99515000Y-96147000D03*
%TD*%
D12*
%TO.P,R10,1*%
%TO.N,Output2*%
X135070000Y-100543300D03*
D13*
%TO.P,R10,2*%
%TO.N,GND*%
X135070000Y-98003300D03*
%TD*%
D12*
%TO.P,R22,1*%
%TO.N,+5V*%
X153853200Y-52890000D03*
D13*
%TO.P,R22,2*%
%TO.N,Input3*%
X151313200Y-52890000D03*
%TD*%
D12*
%TO.P,R24,1*%
%TO.N,+5V*%
X127677500Y-71361100D03*
D13*
%TO.P,R24,2*%
%TO.N,Net-(R24-Pad2)*%
X127677500Y-68821100D03*
%TD*%
D29*
%TO.P,D3,1,K*%
%TO.N,/Input1/Input*%
X121887900Y-51098700D03*
D30*
%TO.P,D3,2,A*%
%TO.N,Net-(D3-A)*%
X132047900Y-51098700D03*
%TD*%
D12*
%TO.P,L1,1,1*%
%TO.N,Net-(D6-K)*%
X145098200Y-136326100D03*
D13*
%TO.P,L1,2,2*%
%TO.N,+5V*%
X134938200Y-136326100D03*
%TD*%
D12*
%TO.P,R14,1*%
%TO.N,+VDC*%
X131826200Y-133138800D03*
D13*
%TO.P,R14,2*%
%TO.N,Net-(IC1-ERROR_FLAG)*%
X131826200Y-128058800D03*
%TD*%
D10*
%TO.P,Q1,1,S*%
%TO.N,GND*%
X108201100Y-62823200D03*
D11*
%TO.P,Q1,2,G*%
%TO.N,Net-(D1-A)*%
X109471100Y-62823200D03*
%TO.P,Q1,3,D*%
%TO.N,Net-(Q1-D)*%
X110741100Y-62823200D03*
%TD*%
D12*
%TO.P,R16,1*%
%TO.N,+5V*%
X148507800Y-81261100D03*
D13*
%TO.P,R16,2*%
%TO.N,Reset*%
X151047800Y-81261100D03*
%TD*%
D12*
%TO.P,C8,1*%
%TO.N,Net-(U1-XTAL1{slash}PB6)*%
X151058000Y-100102700D03*
%TO.P,C8,2*%
%TO.N,GND*%
X146058000Y-100102700D03*
%TD*%
D14*
%TO.P,D8,1,K*%
%TO.N,/Output2/Output*%
X117525000Y-107691500D03*
D19*
%TO.P,D8,2,A*%
%TO.N,GND*%
X132765000Y-107691500D03*
%TD*%
D29*
%TO.P,D6,1,K*%
%TO.N,Net-(D6-K)*%
X142583000Y-125604700D03*
D30*
%TO.P,D6,2,A*%
%TO.N,GND*%
X152743000Y-125604700D03*
%TD*%
D23*
%TO.P,Y1,1,1*%
%TO.N,Net-(U1-XTAL1{slash}PB6)*%
X151906200Y-105860600D03*
%TO.P,Y1,2,2*%
%TO.N,Net-(U1-XTAL2{slash}PB7)*%
X151906200Y-110740600D03*
%TD*%
D12*
%TO.P,R2,1*%
%TO.N,Net-(D1-A)*%
X116310700Y-62463200D03*
D13*
%TO.P,R2,2*%
%TO.N,GND*%
X118850700Y-62463200D03*
%TD*%
D12*
%TO.P,R6,1*%
%TO.N,/Input1/Input*%
X130213700Y-56452900D03*
D13*
%TO.P,R6,2*%
%TO.N,Net-(D3-A)*%
X132753700Y-56452900D03*
%TD*%
D12*
%TO.P,R3,1*%
%TO.N,Output1*%
X135079100Y-86376000D03*
D13*
%TO.P,R3,2*%
%TO.N,GND*%
X135079100Y-83836000D03*
%TD*%
D31*
%TO.N,Input1*%
X159875400Y-100858600D03*
%TO.N,MOSI*%
X155680000Y-110092000D03*
%TD*%
D32*
%TO.N,/Input/Input*%
X99561700Y-60980800D02*
X101187000Y-60980800D01*
X101187000Y-60980800D02*
X105715000Y-56452900D01*
X105715000Y-56452900D02*
X107663600Y-56452900D01*
%TO.N,GND*%
X146637800Y-62463200D02*
X146637800Y-60521800D01*
D33*
X159443000Y-138315000D02*
X160144000Y-139016000D01*
D32*
X152057300Y-56093000D02*
X152960900Y-56996600D01*
D33*
X152889100Y-138315000D02*
X159443000Y-138315000D01*
X168897000Y-104458000D02*
X168897000Y-120468000D01*
X151786000Y-129572000D02*
X150829000Y-130529000D01*
X150829000Y-131757500D02*
X150829000Y-136254000D01*
D32*
X152960900Y-56996600D02*
X152960900Y-57229700D01*
X151066600Y-56093000D02*
X152057300Y-56093000D01*
D33*
X150829000Y-136254000D02*
X152889000Y-138315000D01*
X168897000Y-120468000D02*
X163760000Y-125605000D01*
X168897000Y-120468000D02*
X174007000Y-115358000D01*
X152743000Y-125605000D02*
X152743000Y-128615000D01*
X163760000Y-125605000D02*
X152743300Y-125605000D01*
X150829000Y-130529000D02*
X150829000Y-131757500D01*
X165571000Y-101132000D02*
X168897000Y-104458000D01*
D32*
X146637800Y-60521800D02*
X151066600Y-56093000D01*
X150829000Y-131757500D02*
X150828600Y-131757100D01*
D33*
X147105000Y-144099000D02*
X152889000Y-138315000D01*
X157951000Y-103672000D02*
X163031000Y-103672000D01*
X152743000Y-128615000D02*
X151786000Y-129572000D01*
D32*
X151786000Y-129572000D02*
X150829000Y-130529000D01*
X150828600Y-131757100D02*
X150828600Y-130529000D01*
D33*
X138446300Y-144099000D02*
X147105000Y-144099000D01*
X163031000Y-103672000D02*
X165570800Y-101132200D01*
D32*
X154086000Y-57229700D02*
X152960900Y-57229700D01*
%TO.N,/Input1/Input*%
X121772000Y-56452900D02*
X120644000Y-55325000D01*
X122905000Y-57585500D02*
X121772000Y-56452900D01*
X129081000Y-57585500D02*
X122905000Y-57585500D01*
X104192000Y-61431000D02*
X99561700Y-66060800D01*
X117571000Y-56058400D02*
X117571000Y-56835700D01*
X121888000Y-52523800D02*
X120644000Y-53767500D01*
X118304000Y-55325000D02*
X117571000Y-56058400D01*
X120644000Y-53767500D02*
X120644000Y-55325000D01*
X130213800Y-56453000D02*
X129081000Y-57585500D01*
X112975000Y-61431000D02*
X104192000Y-61431000D01*
X121888000Y-51811200D02*
X121888000Y-52523800D01*
X117571000Y-56835700D02*
X112975000Y-61431000D01*
X120644000Y-55325000D02*
X118304000Y-55325000D01*
%TO.N,/Input2/Input*%
X142986000Y-55311600D02*
X144126900Y-56452800D01*
X135649000Y-51811200D02*
X135649000Y-52523800D01*
X135649000Y-52523800D02*
X136631000Y-53505800D01*
X135490000Y-58028300D02*
X131255000Y-62262800D01*
X136631000Y-53505800D02*
X136631000Y-55311600D01*
X131255000Y-62262800D02*
X131255000Y-62978500D01*
X104278000Y-66424300D02*
X99561700Y-71140800D01*
X131255000Y-62978500D02*
X127810000Y-66424300D01*
X135490000Y-56452900D02*
X135490000Y-58028300D01*
X127810000Y-66424300D02*
X104278000Y-66424300D01*
X136631000Y-55311600D02*
X135490000Y-56452900D01*
X136631000Y-55311600D02*
X142986000Y-55311600D01*
%TO.N,+VDC*%
X112173000Y-97669400D02*
X116353000Y-97669400D01*
D34*
X108613400Y-115606000D02*
X109378000Y-115606000D01*
D32*
X108992000Y-87014600D02*
X107935000Y-88071800D01*
X112127000Y-84444900D02*
X116890000Y-84444900D01*
D33*
X117254000Y-122496000D02*
X117254000Y-114326000D01*
D34*
X113956000Y-112832000D02*
X115760000Y-112832000D01*
D32*
X108992000Y-86114500D02*
X108992000Y-87014600D01*
D34*
X109378000Y-115606000D02*
X110235000Y-114749000D01*
X110235000Y-114749000D02*
X112152000Y-112832000D01*
D32*
X107935000Y-92890700D02*
X112173000Y-97128800D01*
X109794000Y-100060000D02*
X109794000Y-100048000D01*
D34*
X112152000Y-112832000D02*
X113956000Y-112832000D01*
D32*
X108894000Y-100060000D02*
X109794000Y-100060000D01*
X108894000Y-100960000D02*
X108894000Y-100060000D01*
X110235000Y-114749000D02*
X107679000Y-112193000D01*
X116353000Y-97669400D02*
X116827000Y-98143400D01*
X107679000Y-102175000D02*
X108894000Y-100960000D01*
X112127000Y-84444900D02*
X111562000Y-84444900D01*
X113956000Y-112832000D02*
X112152000Y-112832000D01*
D34*
X115760000Y-112832000D02*
X116507000Y-113579000D01*
D33*
X131826000Y-133139000D02*
X127897000Y-133139000D01*
D32*
X112127000Y-84444900D02*
X112127000Y-83886300D01*
X107935000Y-88071800D02*
X107935000Y-92890700D01*
X109794000Y-100048000D02*
X112173000Y-97669400D01*
X109892000Y-86114500D02*
X108992100Y-86114500D01*
D33*
X127897000Y-133139000D02*
X117254000Y-122496000D01*
D32*
X116507000Y-113579000D02*
X117253800Y-114325800D01*
X111562000Y-84444900D02*
X109892000Y-86114500D01*
D34*
X116507000Y-113579000D02*
X117253800Y-114325800D01*
D32*
X107679000Y-112193000D02*
X107679000Y-102175000D01*
%TO.N,+5V*%
X148009500Y-80762700D02*
X148507800Y-81261000D01*
X127677500Y-71361100D02*
X123206000Y-71361100D01*
X148508000Y-81261100D02*
X148009500Y-80762700D01*
X156825000Y-99163200D02*
X156825000Y-94896100D01*
X148508000Y-84593500D02*
X148508000Y-81261100D01*
X157950000Y-100007000D02*
X157669000Y-100007000D01*
X141514000Y-70329100D02*
X128710000Y-70329100D01*
X108389000Y-71333400D02*
X108908500Y-70813800D01*
D34*
X134946000Y-144099000D02*
X134946000Y-136334000D01*
D32*
X148009500Y-80762700D02*
X147511000Y-80264300D01*
X122139000Y-70294200D02*
X123084000Y-71239000D01*
X150422000Y-71260100D02*
X147511000Y-71260100D01*
X157669000Y-100007000D02*
X156825000Y-99163200D01*
X156825000Y-94896100D02*
X151577000Y-89647300D01*
X147511000Y-80264300D02*
X147511000Y-71260100D01*
X153755000Y-67926700D02*
X150422000Y-71260100D01*
X147511000Y-71260100D02*
X142446000Y-71260100D01*
X128710000Y-70329100D02*
X127678000Y-71361100D01*
X151211000Y-87297100D02*
X148508000Y-84593500D01*
X151211000Y-89647300D02*
X151211000Y-88472200D01*
X151211000Y-88472200D02*
X151211000Y-87297100D01*
X108908500Y-70813800D02*
X109428000Y-70294200D01*
X151577000Y-89647300D02*
X151211000Y-89647300D01*
X142445700Y-71259900D02*
X141514000Y-70329100D01*
X157950000Y-101132000D02*
X157950000Y-100007000D01*
X108908500Y-70813800D02*
X108389200Y-71333100D01*
X165570000Y-103672000D02*
X165570000Y-105577000D01*
X109428000Y-70294200D02*
X122139000Y-70294200D01*
%TO.N,Net-(U1-XTAL1{slash}PB6)*%
X157950500Y-106212000D02*
X152257600Y-106212000D01*
%TO.N,Net-(U1-XTAL2{slash}PB7)*%
X157950500Y-108752000D02*
X153894800Y-108752000D01*
X153894800Y-108752000D02*
X151906200Y-110740600D01*
%TO.N,Net-(D1-A)*%
X118841000Y-57578000D02*
X118841000Y-56452900D01*
X109471000Y-63360700D02*
X109471000Y-63898300D01*
X116311000Y-60107900D02*
X118841000Y-57578000D01*
X114876000Y-63898300D02*
X116310900Y-62463300D01*
X116311000Y-62463200D02*
X116311000Y-60107900D01*
X109471000Y-63898300D02*
X114876000Y-63898300D01*
%TO.N,Net-(D3-A)*%
X123501000Y-61748100D02*
X130106000Y-61748100D01*
X132754000Y-59100600D02*
X132754000Y-56452900D01*
X123501000Y-62285600D02*
X123501000Y-61748100D01*
X130106000Y-61748100D02*
X132754000Y-59100600D01*
X130106000Y-62105600D02*
X130106000Y-61748100D01*
%TO.N,Net-(D4-A)*%
X137375000Y-61748100D02*
X143383000Y-61748100D01*
X143383000Y-60862100D02*
X143383000Y-61748100D01*
X137375000Y-62285600D02*
X137375000Y-61748100D01*
X144097900Y-62463100D02*
X143383000Y-61748100D01*
X146667000Y-57015400D02*
X146667000Y-57578000D01*
X146667000Y-57578000D02*
X143383000Y-60862100D01*
%TO.N,Net-(D6-K)*%
X143841000Y-135068000D02*
X144469500Y-135697000D01*
X144469500Y-135697000D02*
X145098000Y-136326000D01*
D34*
X145098000Y-136326000D02*
X143840000Y-135068000D01*
D32*
X144469500Y-135697000D02*
X145098200Y-136325700D01*
D34*
X143840000Y-135068000D02*
X142583000Y-133811000D01*
D32*
X143840000Y-135068000D02*
X143841000Y-135068000D01*
D34*
X142583000Y-133811000D02*
X142583000Y-125605000D01*
D32*
%TO.N,Net-(D7-K)*%
X152441000Y-80194200D02*
X148641100Y-76394400D01*
X152441000Y-80451800D02*
X152441000Y-80194200D01*
X153666000Y-80451800D02*
X152441000Y-80451800D01*
D34*
%TO.N,/Output2/Output*%
X114925000Y-110292000D02*
X117525000Y-107692000D01*
X112152000Y-110292000D02*
X114925000Y-110292000D01*
D32*
%TO.N,TXttl*%
X165193000Y-99862000D02*
X159140000Y-93809600D01*
X173199000Y-111643000D02*
X172832000Y-111276000D01*
X172832000Y-106772000D02*
X165922000Y-99862000D01*
X158184000Y-92097100D02*
X157950000Y-92097100D01*
X174007000Y-111643000D02*
X173199000Y-111643000D01*
X174007000Y-112230500D02*
X174007000Y-111643000D01*
X159140000Y-93053800D02*
X158184000Y-92097100D01*
X165922000Y-99862000D02*
X165193000Y-99862000D01*
X159140000Y-93809600D02*
X159140000Y-93053800D01*
X172832000Y-111276000D02*
X172832000Y-106772000D01*
X157950000Y-92097100D02*
X157950000Y-91534500D01*
D33*
%TO.N,Net-(P1-Pin_1)*%
X110820000Y-129973000D02*
X99267300Y-118420000D01*
X110820000Y-132418000D02*
X110820000Y-129973000D01*
D32*
%TO.N,Input1*%
X153574400Y-98392100D02*
X153574400Y-94205800D01*
X107245400Y-68281000D02*
X107902900Y-67623500D01*
X159875400Y-100858600D02*
X158428500Y-102305500D01*
X135546100Y-73127200D02*
X108522600Y-73127200D01*
X153574400Y-94205800D02*
X151650800Y-92282200D01*
X150742500Y-92282200D02*
X149846600Y-91386300D01*
X107902900Y-67623500D02*
X116397200Y-67623500D01*
X149846600Y-91386300D02*
X149846600Y-87427700D01*
X107245400Y-71850000D02*
X107245400Y-68281000D01*
X121768600Y-68889200D02*
X121958800Y-68699000D01*
X116397200Y-67623500D02*
X117662900Y-68889200D01*
X158428500Y-102305500D02*
X157487800Y-102305500D01*
X118788000Y-68889200D02*
X117662900Y-68889200D01*
X123083900Y-68699000D02*
X121958800Y-68699000D01*
X151650800Y-92282200D02*
X150742500Y-92282200D01*
X157487800Y-102305500D02*
X153574400Y-98392100D01*
X149846600Y-87427700D02*
X135546100Y-73127200D01*
X118788000Y-68889200D02*
X121768600Y-68889200D01*
X108522600Y-73127200D02*
X107245400Y-71850000D01*
%TO.N,Output1*%
X151494000Y-111848800D02*
X135079100Y-95433900D01*
X135079100Y-86943000D02*
X129236500Y-86943000D01*
X129236500Y-85867900D02*
X129236500Y-86943000D01*
X156268600Y-111848800D02*
X151494000Y-111848800D01*
X135079100Y-95433900D02*
X135079100Y-86943000D01*
X157950500Y-111292000D02*
X156825400Y-111292000D01*
X156825400Y-111292000D02*
X156268600Y-111848800D01*
%TO.N,Net-(Q2-D)*%
X125074200Y-84695500D02*
X130409000Y-84695500D01*
X130409000Y-84695500D02*
X130506000Y-84792800D01*
X130506000Y-84792800D02*
X130506000Y-85330300D01*
%TO.N,Net-(Q3-Pad1)*%
X118852000Y-83687600D02*
X119798000Y-83687600D01*
X110842000Y-77264000D02*
X109916900Y-76339200D01*
X112127000Y-78247700D02*
X113412000Y-78247700D01*
X110842000Y-78247700D02*
X110842000Y-77264000D01*
X113412000Y-78247700D02*
X118852000Y-83687600D01*
X109916900Y-76339200D02*
X108992000Y-75414500D01*
X119798000Y-83687600D02*
X119798000Y-84250100D01*
X109916900Y-76339200D02*
X109916800Y-76339200D01*
X119798100Y-84250100D02*
X122088800Y-84250100D01*
X109916800Y-76339200D02*
X108992100Y-75414500D01*
X111606000Y-78247700D02*
X110842000Y-78247700D01*
%TO.N,Input2*%
X160451300Y-81918500D02*
X160451300Y-72977700D01*
X160451300Y-72977700D02*
X154247400Y-66773800D01*
X158611600Y-83758200D02*
X160451300Y-81918500D01*
X159123100Y-95557700D02*
X158347400Y-94782000D01*
X157563000Y-94782000D02*
X156291800Y-93510800D01*
X158231800Y-97466900D02*
X159123100Y-96575600D01*
X157950500Y-97466900D02*
X158231800Y-97466900D01*
X142445500Y-68720100D02*
X143570600Y-68720100D01*
X154247400Y-66773800D02*
X145516900Y-66773800D01*
X156291800Y-85464600D02*
X157998200Y-83758200D01*
X157950500Y-98592000D02*
X157950500Y-97466900D01*
X157998200Y-83758200D02*
X158611600Y-83758200D01*
X158347400Y-94782000D02*
X157563000Y-94782000D01*
X145516900Y-66773800D02*
X143570600Y-68720100D01*
X159123100Y-96575600D02*
X159123100Y-95557700D01*
X156291800Y-93510800D02*
X156291800Y-85464600D01*
%TO.N,Input3*%
X160941600Y-67750400D02*
X160941600Y-87037000D01*
X156788800Y-90530200D02*
X156788800Y-92350300D01*
X151546000Y-58354800D02*
X160941600Y-67750400D01*
X160941600Y-87037000D02*
X158131800Y-89846800D01*
X157472200Y-89846800D02*
X156788800Y-90530200D01*
X158131800Y-89846800D02*
X157472200Y-89846800D01*
X156788800Y-92350300D02*
X157950500Y-93512000D01*
X151546000Y-57229700D02*
X151546000Y-58354800D01*
%TO.N,Output2*%
X135070000Y-100914900D02*
X129149000Y-100914900D01*
X147987100Y-113832000D02*
X135070000Y-100914900D01*
X129149000Y-99839800D02*
X129149000Y-100914900D01*
X157950500Y-113832000D02*
X147987100Y-113832000D01*
%TO.N,Net-(Q6-D)*%
X130419000Y-98764700D02*
X130419000Y-99839800D01*
X125070000Y-98617400D02*
X130272000Y-98617400D01*
X130272000Y-98617400D02*
X130419000Y-98764700D01*
%TO.N,Net-(Q7-Pad1)*%
X112173000Y-92048800D02*
X113458000Y-92048800D01*
X110888000Y-91353400D02*
X108894000Y-89359500D01*
X110888000Y-92048800D02*
X110888000Y-91353400D01*
X119841000Y-97492300D02*
X119841000Y-98617400D01*
X113458000Y-92048800D02*
X118902000Y-97492300D01*
X111653000Y-92048800D02*
X110888000Y-92048800D01*
X118902000Y-97492300D02*
X119841000Y-97492300D01*
%TO.N,Output3*%
X134648000Y-116224500D02*
X134286000Y-116586000D01*
X136861400Y-117714300D02*
X163247700Y-117714300D01*
X135009900Y-115862800D02*
X136861400Y-117714300D01*
X129050000Y-116586000D02*
X129050000Y-115511100D01*
X134286000Y-116586000D02*
X129050000Y-116586000D01*
X163247700Y-117714300D02*
X164445400Y-118912000D01*
X165570500Y-118912000D02*
X164445400Y-118912000D01*
%TO.N,Net-(Q9-D)*%
X130210000Y-114326000D02*
X130320000Y-114436000D01*
X125005000Y-114326000D02*
X130210000Y-114326000D01*
X130320000Y-114436000D02*
X130320000Y-115511000D01*
%TO.N,Net-(Q10-Pad1)*%
X122464500Y-114326000D02*
X119794400Y-114326000D01*
D34*
X108614000Y-104906000D02*
X109305000Y-104906000D01*
X110867000Y-106467900D02*
X112152000Y-107752000D01*
X110728000Y-106329000D02*
X110867000Y-106467900D01*
D32*
X110867000Y-106467900D02*
X110867000Y-106467000D01*
X110867000Y-106467000D02*
X110728000Y-106329000D01*
X112151800Y-107752000D02*
X110867000Y-107752000D01*
D34*
X109305000Y-104906000D02*
X110728000Y-106329000D01*
D32*
X110867000Y-107752000D02*
X110867000Y-106467900D01*
%TO.N,Reset*%
X152589000Y-81677000D02*
X152173000Y-81261100D01*
X157582000Y-81677000D02*
X152589000Y-81677000D01*
X159376000Y-80957600D02*
X158301000Y-80957600D01*
X158301000Y-80957600D02*
X157582000Y-81677000D01*
X152173000Y-81261100D02*
X151048000Y-81261100D01*
%TO.N,MOSI*%
X165570000Y-113832000D02*
X164445000Y-113832000D01*
X160706000Y-110092000D02*
X155680000Y-110092000D01*
X164445000Y-113832000D02*
X160706000Y-110092000D01*
%TO.N,MISO*%
X148671400Y-87297100D02*
X148671400Y-88472200D01*
X123949200Y-89652715D02*
X123949200Y-84210584D01*
X166752700Y-114261600D02*
X166054800Y-114959500D01*
X136742464Y-99371914D02*
X133668399Y-99371914D01*
X163368800Y-114959500D02*
X160971300Y-112562000D01*
X123949200Y-84210584D02*
X125466184Y-82693600D01*
X144067900Y-82693600D02*
X148671400Y-87297100D01*
X133668399Y-99371914D02*
X123949200Y-89652715D01*
X149932550Y-112562000D02*
X136742464Y-99371914D01*
X165570500Y-111292000D02*
X165570500Y-112417100D01*
X166752700Y-113366200D02*
X166752700Y-114261600D01*
X125466184Y-82693600D02*
X144067900Y-82693600D01*
X160971300Y-112562000D02*
X149932550Y-112562000D01*
X165570500Y-112417100D02*
X165803600Y-112417100D01*
X166054800Y-114959500D02*
X163368800Y-114959500D01*
X165803600Y-112417100D02*
X166752700Y-113366200D01*
%TO.N,SCK*%
X149846000Y-92995100D02*
X149846000Y-97169500D01*
X148671000Y-92187300D02*
X149039000Y-92187300D01*
X148671000Y-91599700D02*
X148671000Y-92187300D01*
X157474000Y-104797000D02*
X160490000Y-104797000D01*
X164445000Y-108752000D02*
X165570000Y-108752000D01*
X149039000Y-92187300D02*
X149846000Y-92995100D01*
X160490000Y-104797000D02*
X164445000Y-108752000D01*
X149846000Y-97169500D02*
X157474000Y-104797000D01*
%TO.N,A0*%
X165570500Y-98592000D02*
X172760000Y-98592000D01*
X172760000Y-98592000D02*
X172832000Y-98663400D01*
X172832000Y-98663400D02*
X174006800Y-98663400D01*
%TO.N,A1*%
X172760000Y-96052000D02*
X172832000Y-96123400D01*
X165570500Y-96052000D02*
X172760000Y-96052000D01*
X172832000Y-96123400D02*
X174006800Y-96123400D01*
%TO.N,A2*%
X165570500Y-93512000D02*
X172760000Y-93512000D01*
X172832000Y-93583400D02*
X174006800Y-93583400D01*
X172760000Y-93512000D02*
X172832000Y-93583400D01*
%TO.N,A3*%
X172832000Y-91043400D02*
X174006800Y-91043400D01*
X172760000Y-90972000D02*
X172832000Y-91043400D01*
X165570500Y-90972000D02*
X172760000Y-90972000D01*
%TO.N,A4*%
X172760000Y-88432000D02*
X172832000Y-88503400D01*
X165570500Y-88432000D02*
X172760000Y-88432000D01*
X172832000Y-88503400D02*
X174006800Y-88503400D01*
%TO.N,A5*%
X172760000Y-85892000D02*
X172832000Y-85963400D01*
X165570500Y-85892000D02*
X172760000Y-85892000D01*
X172832000Y-85963400D02*
X174006800Y-85963400D01*
%TO.N,Net-(Q5-D)*%
X154086000Y-64849700D02*
X152961000Y-64849700D01*
X139496000Y-62823200D02*
X138645400Y-62823200D01*
X140397000Y-63724600D02*
X139496000Y-62823200D01*
X152961000Y-64146500D02*
X152539000Y-63724600D01*
X152961000Y-64849700D02*
X152961000Y-64146500D01*
X152539000Y-63724600D02*
X140397000Y-63724600D01*
%TO.N,Net-(R23-Pad2)*%
X111168000Y-68889200D02*
X109610000Y-68889200D01*
X109610000Y-68889200D02*
X109514000Y-68793400D01*
X109514000Y-68793400D02*
X108389200Y-68793400D01*
%TO.N,Net-(R24-Pad2)*%
X127678000Y-68821100D02*
X128803000Y-68821100D01*
X128947000Y-68965700D02*
X130547000Y-68965700D01*
X128803000Y-68821100D02*
X128947000Y-68965700D01*
%TD*%
M02*
