%TF.GenerationSoftware,KiCad,Pcbnew,7.0.1*%
%TF.CreationDate,2023-05-14T18:13:28-07:00*%
%TF.ProjectId,BasicBitch328pThingy,42617369-6342-4697-9463-683332387054,rev?*%
%TF.SameCoordinates,Original*%
%TF.FileFunction,Copper,L1,Top*%
%TF.FilePolarity,Positive*%
%FSLAX46Y46*%
G04 Gerber Fmt 4.6, Leading zero omitted, Abs format (unit mm)*
G04 Created by KiCad (PCBNEW 7.0.1) date 2023-05-14 18:13:28*
%MOMM*%
%LPD*%
G01*
G04 APERTURE LIST*
%TA.AperFunction,ComponentPad*%
%ADD10R,1.050000X1.500000*%
%TD*%
%TA.AperFunction,ComponentPad*%
%ADD11O,1.050000X1.500000*%
%TD*%
%TA.AperFunction,ComponentPad*%
%ADD12C,1.600000*%
%TD*%
%TA.AperFunction,ComponentPad*%
%ADD13O,1.600000X1.600000*%
%TD*%
%TA.AperFunction,ComponentPad*%
%ADD14R,2.600000X2.600000*%
%TD*%
%TA.AperFunction,ComponentPad*%
%ADD15C,2.600000*%
%TD*%
%TA.AperFunction,ComponentPad*%
%ADD16R,1.700000X1.700000*%
%TD*%
%TA.AperFunction,ComponentPad*%
%ADD17O,1.700000X1.700000*%
%TD*%
%TA.AperFunction,ComponentPad*%
%ADD18R,1.600000X1.600000*%
%TD*%
%TA.AperFunction,ComponentPad*%
%ADD19O,2.600000X2.600000*%
%TD*%
%TA.AperFunction,ComponentPad*%
%ADD20R,1.150000X1.150000*%
%TD*%
%TA.AperFunction,ComponentPad*%
%ADD21C,1.150000*%
%TD*%
%TA.AperFunction,ComponentPad*%
%ADD22R,1.500000X1.500000*%
%TD*%
%TA.AperFunction,ComponentPad*%
%ADD23C,1.500000*%
%TD*%
%TA.AperFunction,ComponentPad*%
%ADD24R,1.920000X1.920000*%
%TD*%
%TA.AperFunction,ComponentPad*%
%ADD25C,1.920000*%
%TD*%
%TA.AperFunction,ComponentPad*%
%ADD26R,1.800000X1.800000*%
%TD*%
%TA.AperFunction,ComponentPad*%
%ADD27C,1.800000*%
%TD*%
%TA.AperFunction,SMDPad,CuDef*%
%ADD28R,1.528000X0.650000*%
%TD*%
%TA.AperFunction,ComponentPad*%
%ADD29C,2.100000*%
%TD*%
%TA.AperFunction,ComponentPad*%
%ADD30R,2.200000X2.200000*%
%TD*%
%TA.AperFunction,ComponentPad*%
%ADD31O,2.200000X2.200000*%
%TD*%
%TA.AperFunction,ViaPad*%
%ADD32C,0.800000*%
%TD*%
%TA.AperFunction,Conductor*%
%ADD33C,1.270000*%
%TD*%
%TA.AperFunction,Conductor*%
%ADD34C,0.250000*%
%TD*%
%TA.AperFunction,Conductor*%
%ADD35C,0.635000*%
%TD*%
G04 APERTURE END LIST*
D10*
%TO.P,Q4,1,S*%
%TO.N,GND*%
X122231400Y-62823200D03*
D11*
%TO.P,Q4,2,G*%
%TO.N,Net-(D3-A)*%
X123501400Y-62823200D03*
%TO.P,Q4,3,D*%
%TO.N,Net-(Q4-D)*%
X124771400Y-62823200D03*
%TD*%
D12*
%TO.P,R12,1*%
%TO.N,Net-(Q7-Pad1)*%
X122529500Y-98617400D03*
D13*
%TO.P,R12,2*%
%TO.N,Net-(Q6-D)*%
X125069500Y-98617400D03*
%TD*%
D14*
%TO.P,P1,1,Pin_1*%
%TO.N,Net-(P1-Pin_1)*%
X99267300Y-118419900D03*
D15*
%TO.P,P1,2,Pin_2*%
%TO.N,GND*%
X99267300Y-123499900D03*
%TD*%
D16*
%TO.P,J4,1,Pin_1*%
%TO.N,D8*%
X174006800Y-103743400D03*
D17*
%TO.P,J4,2,Pin_2*%
%TO.N,D10*%
X174006800Y-101203400D03*
%TO.P,J4,3,Pin_3*%
%TO.N,A0*%
X174006800Y-98663400D03*
%TO.P,J4,4,Pin_4*%
%TO.N,A1*%
X174006800Y-96123400D03*
%TO.P,J4,5,Pin_5*%
%TO.N,A2*%
X174006800Y-93583400D03*
%TO.P,J4,6,Pin_6*%
%TO.N,A3*%
X174006800Y-91043400D03*
%TO.P,J4,7,Pin_7*%
%TO.N,A4*%
X174006800Y-88503400D03*
%TO.P,J4,8,Pin_8*%
%TO.N,A5*%
X174006800Y-85963400D03*
%TD*%
D12*
%TO.P,C5,1*%
%TO.N,Net-(IC1-~{SHUTDOWN}{slash}SOFT-START)*%
X145828600Y-130529000D03*
%TO.P,C5,2*%
%TO.N,GND*%
X150828600Y-130529000D03*
%TD*%
D18*
%TO.P,C7,1*%
%TO.N,+5V*%
X134946200Y-144099100D03*
D12*
%TO.P,C7,2*%
%TO.N,GND*%
X138446200Y-144099100D03*
%TD*%
%TO.P,R15,1*%
%TO.N,Net-(D7-K)*%
X148641100Y-76394400D03*
D13*
%TO.P,R15,2*%
%TO.N,GND*%
X151181100Y-76394400D03*
%TD*%
D14*
%TO.P,D2,1,K*%
%TO.N,/Output/Output*%
X117493300Y-78676900D03*
D19*
%TO.P,D2,2,A*%
%TO.N,GND*%
X132733300Y-78676900D03*
%TD*%
D20*
%TO.P,Z1,1*%
%TO.N,+VDC*%
X108992100Y-86114500D03*
D21*
%TO.P,Z1,2*%
%TO.N,Net-(Q3-Pad1)*%
X108992100Y-75414500D03*
%TD*%
D12*
%TO.P,R8,1*%
%TO.N,/Input2/Input*%
X144126800Y-56452900D03*
D13*
%TO.P,R8,2*%
%TO.N,Net-(D4-A)*%
X146666800Y-56452900D03*
%TD*%
D22*
%TO.P,S1,1,NO_1*%
%TO.N,Reset*%
X159376100Y-80957600D03*
D23*
%TO.P,S1,2,NO_2*%
%TO.N,unconnected-(S1-NO_2-Pad2)*%
X159376100Y-74457600D03*
%TO.P,S1,3,COM_1*%
%TO.N,GND*%
X163876100Y-80957600D03*
%TO.P,S1,4,COM_2*%
%TO.N,unconnected-(S1-COM_2-Pad4)*%
X163876100Y-74457600D03*
%TD*%
D12*
%TO.P,R23,1*%
%TO.N,+5V*%
X108389200Y-71333400D03*
D13*
%TO.P,R23,2*%
%TO.N,Net-(R23-Pad2)*%
X108389200Y-68793400D03*
%TD*%
D24*
%TO.P,Q10,1*%
%TO.N,Net-(Q10-Pad1)*%
X112151800Y-107751900D03*
D25*
%TO.P,Q10,2*%
%TO.N,/Output2/Output*%
X112151800Y-110291900D03*
%TO.P,Q10,3*%
%TO.N,+VDC*%
X112151800Y-112831900D03*
%TD*%
D18*
%TO.P,C6,1*%
%TO.N,+VDC*%
X149389100Y-138315000D03*
D12*
%TO.P,C6,2*%
%TO.N,GND*%
X152889100Y-138315000D03*
%TD*%
D24*
%TO.P,Q7,1*%
%TO.N,Net-(Q7-Pad1)*%
X112173000Y-92048800D03*
D25*
%TO.P,Q7,2*%
%TO.N,/Output1/Output*%
X112173000Y-94588800D03*
%TO.P,Q7,3*%
%TO.N,+VDC*%
X112173000Y-97128800D03*
%TD*%
D12*
%TO.P,R13,1*%
%TO.N,Net-(Q8-Pad1)*%
X103661100Y-132576500D03*
D13*
%TO.P,R13,2*%
%TO.N,GND*%
X103661100Y-130036500D03*
%TD*%
D12*
%TO.P,R11,1*%
%TO.N,+VDC*%
X117301200Y-98617400D03*
D13*
%TO.P,R11,2*%
%TO.N,Net-(Q7-Pad1)*%
X119841200Y-98617400D03*
%TD*%
D24*
%TO.P,Q3,1*%
%TO.N,Net-(Q3-Pad1)*%
X112126700Y-78247700D03*
D25*
%TO.P,Q3,2*%
%TO.N,/Output/Output*%
X112126700Y-80787700D03*
%TO.P,Q3,3*%
%TO.N,+VDC*%
X112126700Y-83327700D03*
%TD*%
D20*
%TO.P,Z3,1*%
%TO.N,+VDC*%
X108613400Y-115605500D03*
D21*
%TO.P,Z3,2*%
%TO.N,Net-(Q10-Pad1)*%
X108613400Y-104905500D03*
%TD*%
D12*
%TO.P,C1,1*%
%TO.N,/Input/Input*%
X107663600Y-56452900D03*
%TO.P,C1,2*%
%TO.N,GND*%
X112663600Y-56452900D03*
%TD*%
D18*
%TO.P,U4,1*%
%TO.N,Net-(R24-Pad2)*%
X130547400Y-68965700D03*
D13*
%TO.P,U4,2*%
%TO.N,Net-(Q4-D)*%
X130547400Y-71505700D03*
%TO.P,U4,3*%
%TO.N,GND*%
X138167400Y-71505700D03*
%TO.P,U4,4*%
%TO.N,Input2*%
X138167400Y-68965700D03*
%TD*%
D18*
%TO.P,U1,1,~{RESET}/PC6*%
%TO.N,Reset*%
X157950500Y-85892000D03*
D13*
%TO.P,U1,2,PD0*%
%TO.N,RXttl*%
X157950500Y-88432000D03*
%TO.P,U1,3,PD1*%
%TO.N,TXttl*%
X157950500Y-90972000D03*
%TO.P,U1,4,PD2*%
%TO.N,Input3*%
X157950500Y-93512000D03*
%TO.P,U1,5,PD3*%
%TO.N,Input1*%
X157950500Y-96052000D03*
%TO.P,U1,6,PD4*%
%TO.N,Input2*%
X157950500Y-98592000D03*
%TO.P,U1,7,VCC*%
%TO.N,+5V*%
X157950500Y-101132000D03*
%TO.P,U1,8,GND*%
%TO.N,GND*%
X157950500Y-103672000D03*
%TO.P,U1,9,XTAL1/PB6*%
%TO.N,Net-(U1-XTAL1{slash}PB6)*%
X157950500Y-106212000D03*
%TO.P,U1,10,XTAL2/PB7*%
%TO.N,Net-(U1-XTAL2{slash}PB7)*%
X157950500Y-108752000D03*
%TO.P,U1,11,PD5*%
%TO.N,Output1*%
X157950500Y-111292000D03*
%TO.P,U1,12,PD6*%
%TO.N,Output2*%
X157950500Y-113832000D03*
%TO.P,U1,13,PD7*%
%TO.N,LED*%
X157950500Y-116372000D03*
%TO.P,U1,14,PB0*%
%TO.N,D8*%
X157950500Y-118912000D03*
%TO.P,U1,15,PB1*%
%TO.N,Output3*%
X165570500Y-118912000D03*
%TO.P,U1,16,PB2*%
%TO.N,D10*%
X165570500Y-116372000D03*
%TO.P,U1,17,PB3*%
%TO.N,MOSI*%
X165570500Y-113832000D03*
%TO.P,U1,18,PB4*%
%TO.N,MISO*%
X165570500Y-111292000D03*
%TO.P,U1,19,PB5*%
%TO.N,SCK*%
X165570500Y-108752000D03*
%TO.P,U1,20,AVCC*%
%TO.N,+5V*%
X165570500Y-106212000D03*
%TO.P,U1,21,AREF*%
X165570500Y-103672000D03*
%TO.P,U1,22,GND*%
%TO.N,GND*%
X165570500Y-101132000D03*
%TO.P,U1,23,PC0*%
%TO.N,A0*%
X165570500Y-98592000D03*
%TO.P,U1,24,PC1*%
%TO.N,A1*%
X165570500Y-96052000D03*
%TO.P,U1,25,PC2*%
%TO.N,A2*%
X165570500Y-93512000D03*
%TO.P,U1,26,PC3*%
%TO.N,A3*%
X165570500Y-90972000D03*
%TO.P,U1,27,PC4*%
%TO.N,A4*%
X165570500Y-88432000D03*
%TO.P,U1,28,PC5*%
%TO.N,A5*%
X165570500Y-85892000D03*
%TD*%
D26*
%TO.P,D7,1,K*%
%TO.N,Net-(D7-K)*%
X153666000Y-80451800D03*
D27*
%TO.P,D7,2,A*%
%TO.N,LED*%
X156206000Y-80451800D03*
%TD*%
D16*
%TO.P,J1,1,Pin_1*%
%TO.N,+VDC*%
X160144200Y-133936100D03*
D17*
%TO.P,J1,2,Pin_2*%
%TO.N,+5V*%
X160144200Y-136476100D03*
%TO.P,J1,3,Pin_3*%
%TO.N,GND*%
X160144200Y-139016100D03*
%TD*%
D10*
%TO.P,Q6,1,S*%
%TO.N,GND*%
X127879000Y-99839800D03*
D11*
%TO.P,Q6,2,G*%
%TO.N,Output2*%
X129149000Y-99839800D03*
%TO.P,Q6,3,D*%
%TO.N,Net-(Q6-D)*%
X130419000Y-99839800D03*
%TD*%
D10*
%TO.P,Q2,1,S*%
%TO.N,GND*%
X127966500Y-85867900D03*
D11*
%TO.P,Q2,2,G*%
%TO.N,Output1*%
X129236500Y-85867900D03*
%TO.P,Q2,3,D*%
%TO.N,Net-(Q2-D)*%
X130506500Y-85867900D03*
%TD*%
D18*
%TO.P,U3,1*%
%TO.N,Net-(R23-Pad2)*%
X111168000Y-68889200D03*
D13*
%TO.P,U3,2*%
%TO.N,Net-(Q1-D)*%
X111168000Y-71429200D03*
%TO.P,U3,3*%
%TO.N,GND*%
X118788000Y-71429200D03*
%TO.P,U3,4*%
%TO.N,Input1*%
X118788000Y-68889200D03*
%TD*%
D12*
%TO.P,R25,1*%
%TO.N,+5V*%
X153755200Y-67926700D03*
D13*
%TO.P,R25,2*%
%TO.N,Net-(R25-Pad2)*%
X151215200Y-67926700D03*
%TD*%
D24*
%TO.P,Q8,1*%
%TO.N,Net-(Q8-Pad1)*%
X108280000Y-132418500D03*
D25*
%TO.P,Q8,2*%
%TO.N,Net-(P1-Pin_1)*%
X110820000Y-132418500D03*
%TO.P,Q8,3*%
%TO.N,Net-(Q8-Pad3)*%
X113360000Y-132418500D03*
%TD*%
D20*
%TO.P,Z2,1*%
%TO.N,+VDC*%
X108894000Y-100059500D03*
D21*
%TO.P,Z2,2*%
%TO.N,Net-(Q7-Pad1)*%
X108894000Y-89359500D03*
%TD*%
D12*
%TO.P,C3,1*%
%TO.N,/Input2/Input*%
X135489800Y-56452900D03*
%TO.P,C3,2*%
%TO.N,GND*%
X140489800Y-56452900D03*
%TD*%
D28*
%TO.P,IC1,1,ERROR_FLAG*%
%TO.N,Net-(IC1-ERROR_FLAG)*%
X137127000Y-128424300D03*
%TO.P,IC1,2,DELAY*%
%TO.N,Net-(IC1-DELAY)*%
X137127000Y-129694300D03*
%TO.P,IC1,3,BIAS_SUPPLY*%
%TO.N,+5V*%
X137127000Y-130964300D03*
%TO.P,IC1,4,FEEDBACK*%
X137127000Y-132234300D03*
%TO.P,IC1,5,~{SHUTDOWN}/SOFT-START*%
%TO.N,Net-(IC1-~{SHUTDOWN}{slash}SOFT-START)*%
X142549000Y-132234300D03*
%TO.P,IC1,6,GROUND*%
%TO.N,GND*%
X142549000Y-130964300D03*
%TO.P,IC1,7,+VIN*%
%TO.N,+VDC*%
X142549000Y-129694300D03*
%TO.P,IC1,8,OUTPUT*%
%TO.N,Net-(D6-K)*%
X142549000Y-128424300D03*
%TD*%
D12*
%TO.P,R9,1*%
%TO.N,Net-(D4-A)*%
X144097800Y-62463200D03*
D13*
%TO.P,R9,2*%
%TO.N,GND*%
X146637800Y-62463200D03*
%TD*%
D29*
%TO.P,U2,1,1*%
%TO.N,+VDC*%
X119487100Y-138354600D03*
%TO.P,U2,2,2*%
X115987100Y-138354600D03*
%TO.P,U2,3,3*%
%TO.N,Net-(Q8-Pad3)*%
X110187100Y-138354600D03*
%TO.P,U2,4,4*%
X106687100Y-138354600D03*
%TO.P,U2,5,5*%
X106687100Y-140854600D03*
%TO.P,U2,6,6*%
X110187100Y-140854600D03*
%TO.P,U2,7,7*%
%TO.N,+VDC*%
X115987100Y-140854600D03*
%TO.P,U2,8,8*%
X119487100Y-140854600D03*
%TD*%
D10*
%TO.P,Q5,1,S*%
%TO.N,GND*%
X136105400Y-62823200D03*
D11*
%TO.P,Q5,2,G*%
%TO.N,Net-(D4-A)*%
X137375400Y-62823200D03*
%TO.P,Q5,3,D*%
%TO.N,Net-(Q5-D)*%
X138645400Y-62823200D03*
%TD*%
D16*
%TO.P,J3,1,Pin_1*%
%TO.N,MISO*%
X148671400Y-88472200D03*
D17*
%TO.P,J3,2,Pin_2*%
%TO.N,+5V*%
X151211400Y-88472200D03*
%TO.P,J3,3,Pin_3*%
%TO.N,SCK*%
X148671400Y-91012200D03*
%TO.P,J3,4,Pin_4*%
%TO.N,MOSI*%
X151211400Y-91012200D03*
%TO.P,J3,5,Pin_5*%
%TO.N,Reset*%
X148671400Y-93552200D03*
%TO.P,J3,6,Pin_6*%
%TO.N,GND*%
X151211400Y-93552200D03*
%TD*%
D14*
%TO.P,D5,1,K*%
%TO.N,/Output1/Output*%
X117768900Y-92079500D03*
D19*
%TO.P,D5,2,A*%
%TO.N,GND*%
X133008900Y-92079500D03*
%TD*%
D12*
%TO.P,R5,1*%
%TO.N,Net-(Q3-Pad1)*%
X122534200Y-84695500D03*
D13*
%TO.P,R5,2*%
%TO.N,Net-(Q2-D)*%
X125074200Y-84695500D03*
%TD*%
D12*
%TO.P,R1,1*%
%TO.N,/Input/Input*%
X116300600Y-56452900D03*
D13*
%TO.P,R1,2*%
%TO.N,Net-(D1-A)*%
X118840600Y-56452900D03*
%TD*%
D10*
%TO.P,Q9,1,S*%
%TO.N,GND*%
X127780000Y-115511100D03*
D11*
%TO.P,Q9,2,G*%
%TO.N,Output3*%
X129050000Y-115511100D03*
%TO.P,Q9,3,D*%
%TO.N,Net-(Q9-D)*%
X130320000Y-115511100D03*
%TD*%
D12*
%TO.P,R20,1*%
%TO.N,+5V*%
X123083900Y-71239000D03*
D13*
%TO.P,R20,2*%
%TO.N,Input1*%
X123083900Y-68699000D03*
%TD*%
D12*
%TO.P,C4,1*%
%TO.N,Net-(IC1-DELAY)*%
X134768500Y-125526600D03*
%TO.P,C4,2*%
%TO.N,GND*%
X139768500Y-125526600D03*
%TD*%
%TO.P,R4,1*%
%TO.N,+VDC*%
X117258100Y-84812700D03*
D13*
%TO.P,R4,2*%
%TO.N,Net-(Q3-Pad1)*%
X119798100Y-84812700D03*
%TD*%
D14*
%TO.P,Z4,1,Pin_1*%
%TO.N,/Input/Input*%
X99561700Y-60980800D03*
D15*
%TO.P,Z4,2,Pin_2*%
%TO.N,/Input1/Input*%
X99561700Y-66060800D03*
%TO.P,Z4,3,Pin_3*%
%TO.N,/Input2/Input*%
X99561700Y-71140800D03*
%TD*%
D12*
%TO.P,R21,1*%
%TO.N,+5V*%
X142445500Y-71260100D03*
D13*
%TO.P,R21,2*%
%TO.N,Input2*%
X142445500Y-68720100D03*
%TD*%
D12*
%TO.P,R7,1*%
%TO.N,Net-(D3-A)*%
X130106200Y-62463200D03*
D13*
%TO.P,R7,2*%
%TO.N,GND*%
X132646200Y-62463200D03*
%TD*%
D18*
%TO.P,U5,1*%
%TO.N,Net-(R25-Pad2)*%
X151546000Y-64849700D03*
D13*
%TO.P,U5,2*%
%TO.N,Net-(Q5-D)*%
X154086000Y-64849700D03*
%TO.P,U5,3*%
%TO.N,GND*%
X154086000Y-57229700D03*
%TO.P,U5,4*%
%TO.N,Input3*%
X151546000Y-57229700D03*
%TD*%
D30*
%TO.P,D1,1,K*%
%TO.N,/Input/Input*%
X107780800Y-51098700D03*
D31*
%TO.P,D1,2,A*%
%TO.N,Net-(D1-A)*%
X117940800Y-51098700D03*
%TD*%
D12*
%TO.P,R18,1*%
%TO.N,+VDC*%
X117254000Y-114325600D03*
D13*
%TO.P,R18,2*%
%TO.N,Net-(Q10-Pad1)*%
X119794000Y-114325600D03*
%TD*%
D12*
%TO.P,R19,1*%
%TO.N,Net-(Q10-Pad1)*%
X122464900Y-114325600D03*
D13*
%TO.P,R19,2*%
%TO.N,Net-(Q9-D)*%
X125004900Y-114325600D03*
%TD*%
D12*
%TO.P,C9,1*%
%TO.N,Net-(U1-XTAL2{slash}PB7)*%
X149827500Y-116521900D03*
%TO.P,C9,2*%
%TO.N,GND*%
X144827500Y-116521900D03*
%TD*%
%TO.P,R17,1*%
%TO.N,Output3*%
X135009900Y-115862800D03*
D13*
%TO.P,R17,2*%
%TO.N,GND*%
X135009900Y-113322800D03*
%TD*%
D30*
%TO.P,D4,1,K*%
%TO.N,/Input2/Input*%
X135649100Y-51098700D03*
D31*
%TO.P,D4,2,A*%
%TO.N,Net-(D4-A)*%
X145809100Y-51098700D03*
%TD*%
D16*
%TO.P,J2,1,Pin_1*%
%TO.N,RXttl*%
X174006800Y-110277800D03*
D17*
%TO.P,J2,2,Pin_2*%
%TO.N,TXttl*%
X174006800Y-112817800D03*
%TO.P,J2,3,Pin_3*%
%TO.N,GND*%
X174006800Y-115357800D03*
%TD*%
D12*
%TO.P,C2,1*%
%TO.N,/Input1/Input*%
X121772100Y-56452900D03*
%TO.P,C2,2*%
%TO.N,GND*%
X126772100Y-56452900D03*
%TD*%
D14*
%TO.P,Z5,1,Pin_1*%
%TO.N,/Output/Output*%
X99515000Y-85987000D03*
D15*
%TO.P,Z5,2,Pin_2*%
%TO.N,/Output1/Output*%
X99515000Y-91067000D03*
%TO.P,Z5,3,Pin_3*%
%TO.N,/Output2/Output*%
X99515000Y-96147000D03*
%TD*%
D12*
%TO.P,R10,1*%
%TO.N,Output2*%
X135070000Y-100543300D03*
D13*
%TO.P,R10,2*%
%TO.N,GND*%
X135070000Y-98003300D03*
%TD*%
D12*
%TO.P,R22,1*%
%TO.N,+5V*%
X153853200Y-52890000D03*
D13*
%TO.P,R22,2*%
%TO.N,Input3*%
X151313200Y-52890000D03*
%TD*%
D12*
%TO.P,R24,1*%
%TO.N,+5V*%
X127677500Y-71361100D03*
D13*
%TO.P,R24,2*%
%TO.N,Net-(R24-Pad2)*%
X127677500Y-68821100D03*
%TD*%
D30*
%TO.P,D3,1,K*%
%TO.N,/Input1/Input*%
X121887900Y-51098700D03*
D31*
%TO.P,D3,2,A*%
%TO.N,Net-(D3-A)*%
X132047900Y-51098700D03*
%TD*%
D12*
%TO.P,L1,1,1*%
%TO.N,Net-(D6-K)*%
X145098200Y-136326100D03*
D13*
%TO.P,L1,2,2*%
%TO.N,+5V*%
X134938200Y-136326100D03*
%TD*%
D12*
%TO.P,R14,1*%
%TO.N,+VDC*%
X131826200Y-133138800D03*
D13*
%TO.P,R14,2*%
%TO.N,Net-(IC1-ERROR_FLAG)*%
X131826200Y-128058800D03*
%TD*%
D10*
%TO.P,Q1,1,S*%
%TO.N,GND*%
X108201100Y-62823200D03*
D11*
%TO.P,Q1,2,G*%
%TO.N,Net-(D1-A)*%
X109471100Y-62823200D03*
%TO.P,Q1,3,D*%
%TO.N,Net-(Q1-D)*%
X110741100Y-62823200D03*
%TD*%
D12*
%TO.P,R16,1*%
%TO.N,+5V*%
X148507800Y-81261100D03*
D13*
%TO.P,R16,2*%
%TO.N,Reset*%
X151047800Y-81261100D03*
%TD*%
D12*
%TO.P,C8,1*%
%TO.N,Net-(U1-XTAL1{slash}PB6)*%
X151058000Y-100102700D03*
%TO.P,C8,2*%
%TO.N,GND*%
X146058000Y-100102700D03*
%TD*%
D14*
%TO.P,D8,1,K*%
%TO.N,/Output2/Output*%
X117525000Y-107691500D03*
D19*
%TO.P,D8,2,A*%
%TO.N,GND*%
X132765000Y-107691500D03*
%TD*%
D30*
%TO.P,D6,1,K*%
%TO.N,Net-(D6-K)*%
X142583000Y-125604700D03*
D31*
%TO.P,D6,2,A*%
%TO.N,GND*%
X152743000Y-125604700D03*
%TD*%
D23*
%TO.P,Y1,1,1*%
%TO.N,Net-(U1-XTAL1{slash}PB6)*%
X151906200Y-105860600D03*
%TO.P,Y1,2,2*%
%TO.N,Net-(U1-XTAL2{slash}PB7)*%
X151906200Y-110740600D03*
%TD*%
D12*
%TO.P,R2,1*%
%TO.N,Net-(D1-A)*%
X116310700Y-62463200D03*
D13*
%TO.P,R2,2*%
%TO.N,GND*%
X118850700Y-62463200D03*
%TD*%
D12*
%TO.P,R6,1*%
%TO.N,/Input1/Input*%
X130213700Y-56452900D03*
D13*
%TO.P,R6,2*%
%TO.N,Net-(D3-A)*%
X132753700Y-56452900D03*
%TD*%
D12*
%TO.P,R3,1*%
%TO.N,Output1*%
X135079100Y-86376000D03*
D13*
%TO.P,R3,2*%
%TO.N,GND*%
X135079100Y-83836000D03*
%TD*%
D32*
%TO.N,Input1*%
X159875400Y-100858600D03*
%TO.N,MOSI*%
X155680000Y-110092000D03*
%TD*%
D33*
%TO.N,GND*%
X136380000Y-78676900D02*
X132733300Y-78676900D01*
D34*
%TO.N,/Input/Input*%
X107781000Y-51098700D02*
X107781000Y-53186800D01*
X107781000Y-53186800D02*
X107780800Y-53186600D01*
X107780800Y-53186600D02*
X107780800Y-51098700D01*
X107664000Y-55392100D02*
X107781000Y-55274900D01*
X115123000Y-55274900D02*
X116300600Y-56452500D01*
X107781000Y-55274900D02*
X115123000Y-55274900D01*
X107781000Y-53186800D02*
X107781000Y-55274900D01*
X107664000Y-56452900D02*
X107664000Y-55392100D01*
D33*
%TO.N,GND*%
X151181000Y-74726800D02*
X151181000Y-73059300D01*
X135070000Y-98003300D02*
X139889000Y-98003300D01*
X132646000Y-60879200D02*
X132595000Y-60828200D01*
D34*
X145952000Y-112318900D02*
X145978000Y-112292900D01*
X119069300Y-70304100D02*
X119913700Y-69459700D01*
D33*
X132595000Y-60828200D02*
X135916000Y-60828200D01*
X108111000Y-62744400D02*
X108111000Y-62823200D01*
D34*
X132733000Y-78676900D02*
X132733000Y-80595200D01*
X134849000Y-82710900D02*
X135079000Y-82710900D01*
X118788000Y-70304100D02*
X119069300Y-70304100D01*
D33*
X138167400Y-78676900D02*
X136380000Y-78676900D01*
X151181000Y-75977500D02*
X151181000Y-75560600D01*
X145978000Y-104092000D02*
X145978000Y-100102700D01*
D34*
X136105000Y-61965600D02*
X136105000Y-62823200D01*
D33*
X99267300Y-123500000D02*
X119701000Y-123500000D01*
X151181000Y-73059300D02*
X148885000Y-70762800D01*
X122397000Y-60828200D02*
X122141000Y-61083500D01*
X122141000Y-61953300D02*
X122141000Y-62823200D01*
X145978000Y-88274700D02*
X145978000Y-98786000D01*
X136015000Y-60927200D02*
X140490000Y-56452900D01*
X151865000Y-73059300D02*
X151181000Y-73059300D01*
D34*
X135010000Y-113323000D02*
X135010000Y-110507000D01*
D33*
X136015000Y-61875200D02*
X136015000Y-62823200D01*
X163876000Y-80957600D02*
X162291000Y-79372600D01*
X118851000Y-62463200D02*
X118851000Y-61068400D01*
X135070000Y-98003300D02*
X135070000Y-94140600D01*
X145952000Y-109675000D02*
X145952000Y-112318900D01*
X148885000Y-64710000D02*
X148885000Y-70762800D01*
X126930000Y-116271000D02*
X127690000Y-115511000D01*
X158178000Y-79372600D02*
X151865000Y-73059300D01*
X144773800Y-116468200D02*
X137742000Y-123500000D01*
X136015000Y-60927200D02*
X136015000Y-61875200D01*
D34*
X133888000Y-107691000D02*
X127879000Y-101682000D01*
D33*
X122397000Y-60828200D02*
X118611000Y-60828200D01*
X151181000Y-76394400D02*
X151181000Y-76185900D01*
X139889000Y-98003300D02*
X145978000Y-104092000D01*
X135070000Y-94140600D02*
X133009000Y-92079500D01*
X108111000Y-62034800D02*
X108111000Y-62744400D01*
X119701000Y-123500000D02*
X126930000Y-116271000D01*
D34*
X136015000Y-61875200D02*
X136105000Y-61965600D01*
D33*
X103660800Y-130036800D02*
X99267300Y-125643000D01*
X122397000Y-60828200D02*
X132595000Y-60828200D01*
D34*
X118788000Y-71429200D02*
X118788000Y-70304100D01*
D33*
X118611000Y-60828200D02*
X112468000Y-60828200D01*
X99267300Y-125643000D02*
X99267300Y-124571500D01*
X137742000Y-123500000D02*
X119701000Y-123500000D01*
D34*
X135009900Y-110507100D02*
X135009900Y-113322800D01*
X151181000Y-74726900D02*
X151181000Y-75560600D01*
D35*
X141150000Y-130964000D02*
X139768000Y-129583000D01*
D33*
X148885000Y-70762800D02*
X140971000Y-78676900D01*
D34*
X122141000Y-61953300D02*
X122231000Y-62043700D01*
D33*
X145978000Y-98786000D02*
X151211000Y-93552200D01*
D34*
X135079000Y-82710900D02*
X135079000Y-83273400D01*
D33*
X118851000Y-61068400D02*
X118611000Y-60828200D01*
D34*
X151181000Y-75560600D02*
X151181000Y-75977500D01*
D33*
X99267300Y-124571500D02*
X99267300Y-123500000D01*
D34*
X128536000Y-84792800D02*
X127966000Y-84792800D01*
X118850700Y-63025700D02*
X118850700Y-63588300D01*
X127966000Y-84792800D02*
X127966000Y-85330300D01*
X126930000Y-116271000D02*
X126930000Y-115511000D01*
X135010000Y-110507000D02*
X135010000Y-107691000D01*
D33*
X122141000Y-61083500D02*
X122141000Y-61953300D01*
X132765000Y-107691000D02*
X133888000Y-107691000D01*
D34*
X127879000Y-101682000D02*
X127879000Y-99839800D01*
X151181000Y-74726800D02*
X151181000Y-74726900D01*
D33*
X133888000Y-107691000D02*
X135010000Y-107691000D01*
D34*
X145978000Y-112292900D02*
X145978000Y-109649000D01*
D33*
X135010000Y-107691000D02*
X142378000Y-107691000D01*
D34*
X122231000Y-62043700D02*
X122231000Y-62823200D01*
D33*
X126772000Y-56452900D02*
X122397000Y-60828200D01*
X150638000Y-123500000D02*
X137742000Y-123500000D01*
D34*
X138167400Y-71505700D02*
X138167400Y-78676900D01*
D33*
X146638000Y-62463200D02*
X148885000Y-64710000D01*
X112664000Y-60632800D02*
X112468000Y-60828200D01*
X139768000Y-125527000D02*
X137742000Y-123500000D01*
D34*
X119913700Y-69459700D02*
X119913700Y-64651300D01*
X132733000Y-80595200D02*
X128536000Y-84792800D01*
D33*
X109318000Y-60828200D02*
X108111000Y-62034800D01*
X162291000Y-79372600D02*
X158178000Y-79372600D01*
X145978000Y-100102700D02*
X145978000Y-98786000D01*
D34*
X132733000Y-80595200D02*
X134849000Y-82710900D01*
D33*
X145952000Y-112318900D02*
X145952000Y-115290000D01*
X151181000Y-76185900D02*
X151181000Y-75977500D01*
X151181000Y-74726900D02*
X151181000Y-74726800D01*
D34*
X126930000Y-115511000D02*
X127690000Y-115511000D01*
D35*
X139768000Y-129583000D02*
X139768000Y-125527000D01*
D33*
X135916000Y-60828200D02*
X136015000Y-60927200D01*
X112664000Y-56452900D02*
X112664000Y-60632800D01*
X142378000Y-107691000D02*
X145978000Y-104092000D01*
X152742900Y-125604800D02*
X150638000Y-123500000D01*
X140971000Y-78676900D02*
X138167400Y-78676900D01*
X145952000Y-115290000D02*
X144773800Y-116468200D01*
X145978000Y-104092000D02*
X145978000Y-109649000D01*
D35*
X142549000Y-130964000D02*
X141150000Y-130964000D01*
D33*
X140490000Y-56452900D02*
X146500000Y-62463200D01*
X136380000Y-78676900D02*
X145978000Y-88274700D01*
X112468000Y-60828200D02*
X109318000Y-60828200D01*
X151181000Y-75560600D02*
X151181000Y-74726900D01*
D34*
X119913700Y-64651300D02*
X118850700Y-63588300D01*
D33*
X132646000Y-62463200D02*
X132646000Y-60879200D01*
D34*
X135010000Y-110507000D02*
X135009900Y-110507100D01*
D35*
%TO.N,Net-(IC1-DELAY)*%
X137126700Y-129694000D02*
X134824000Y-129694000D01*
X129247000Y-130355000D02*
X129247000Y-126239000D01*
X129317000Y-130286000D02*
X129247000Y-130355000D01*
X129247000Y-126239000D02*
X129960000Y-125527000D01*
X134824000Y-129694000D02*
X134233000Y-130286000D01*
X134233000Y-130286000D02*
X129317000Y-130286000D01*
X129960000Y-125527000D02*
X134768000Y-125527000D01*
%TO.N,Net-(IC1-~{SHUTDOWN}{slash}SOFT-START)*%
X142549300Y-132234000D02*
X144123000Y-132234000D01*
X145147000Y-131211000D02*
X145488000Y-130870000D01*
D34*
X145147000Y-131211000D02*
X145488000Y-130870000D01*
D35*
X144123000Y-132234000D02*
X145147000Y-131211000D01*
%TO.N,+VDC*%
X144000000Y-129694000D02*
X145634000Y-128061000D01*
D33*
X119487000Y-140854600D02*
X119487000Y-138355000D01*
D35*
X157762000Y-133936000D02*
X160144000Y-133936000D01*
D33*
X126610000Y-138355000D02*
X119487000Y-138355000D01*
X115987000Y-138355000D02*
X115987000Y-140854600D01*
D35*
X149389100Y-138314900D02*
X153768000Y-133936000D01*
D33*
X119487000Y-138355000D02*
X115987000Y-138355000D01*
D35*
X145634000Y-128061000D02*
X151887000Y-128061000D01*
D33*
X126650000Y-138315000D02*
X149389000Y-138315000D01*
X126650000Y-138315000D02*
X131826000Y-133139000D01*
X126650000Y-138315000D02*
X126610000Y-138355000D01*
D35*
X153768000Y-133936000D02*
X157762000Y-133936000D01*
X151887000Y-128061000D02*
X157762000Y-133936000D01*
X142549000Y-129694000D02*
X144000000Y-129694000D01*
D33*
X115987000Y-140855000D02*
X119487000Y-140855000D01*
D34*
%TO.N,+5V*%
X165570000Y-107337000D02*
X165570000Y-106212000D01*
D35*
X134938000Y-135374000D02*
X134938000Y-134423000D01*
D34*
X160144000Y-135301000D02*
X160952000Y-135301000D01*
X152942000Y-53801000D02*
X152942000Y-67113700D01*
X164156000Y-108519000D02*
X165337000Y-107337000D01*
X137127000Y-131599000D02*
X137127000Y-131916500D01*
X164156000Y-111854000D02*
X164156000Y-108519000D01*
D35*
X137127000Y-131599000D02*
X137127000Y-130964300D01*
D34*
X156802000Y-119379000D02*
X156802000Y-118436000D01*
X152942000Y-67113700D02*
X153755000Y-67926700D01*
X165337000Y-107337000D02*
X165570000Y-107337000D01*
X158223000Y-117787000D02*
X164156000Y-111854000D01*
D35*
X134938000Y-135375000D02*
X134938000Y-135374000D01*
X137747000Y-141298000D02*
X155322000Y-141298000D01*
X155322000Y-141298000D02*
X160144000Y-136476000D01*
D34*
X134938000Y-135375000D02*
X134938000Y-136326000D01*
X161616000Y-103672000D02*
X165570000Y-103672000D01*
X156802000Y-118436000D02*
X157451000Y-117787000D01*
X134938000Y-135374000D02*
X134938000Y-135375000D01*
X161319000Y-123897000D02*
X156802000Y-119379000D01*
D35*
X134938000Y-134423000D02*
X137127000Y-132234000D01*
X137127000Y-131916500D02*
X137127000Y-131599000D01*
D34*
X157950500Y-101132000D02*
X159076000Y-101132000D01*
D35*
X134946200Y-144098800D02*
X137747000Y-141298000D01*
X137127000Y-132234000D02*
X137127000Y-131916500D01*
D34*
X160144000Y-136476000D02*
X160144000Y-135301000D01*
X161319000Y-134934000D02*
X161319000Y-123897000D01*
X157451000Y-117787000D02*
X158223000Y-117787000D01*
X160952000Y-135301000D02*
X161319000Y-134934000D01*
X137127000Y-131916500D02*
X137127000Y-132234000D01*
X153397500Y-53345500D02*
X152942000Y-53801000D01*
X159076000Y-101132000D02*
X161616000Y-103672000D01*
D35*
X134938000Y-136326000D02*
X134938000Y-135375000D01*
D34*
%TO.N,Net-(U1-XTAL1{slash}PB6)*%
X151058000Y-100102700D02*
X151906200Y-100950900D01*
X151906200Y-100950900D02*
X151906200Y-105860600D01*
%TO.N,Net-(U1-XTAL2{slash}PB7)*%
X149827500Y-116521900D02*
X151906200Y-114443200D01*
X151906200Y-114443200D02*
X151906200Y-110740600D01*
%TO.N,Net-(D1-A)*%
X117941000Y-52763300D02*
X117941000Y-51098700D01*
X117941000Y-52763300D02*
X117940800Y-52763100D01*
X117941000Y-54428000D02*
X117941000Y-52763300D01*
X118841000Y-56452900D02*
X118841000Y-55327800D01*
X118841000Y-55327800D02*
X117941000Y-54428000D01*
X117940800Y-52763100D02*
X117940800Y-51098700D01*
D35*
%TO.N,/Output/Output*%
X116438000Y-79732300D02*
X116965500Y-79204600D01*
X100958000Y-85987000D02*
X106157000Y-80787700D01*
X106157000Y-80787700D02*
X112126700Y-80787700D01*
X99515000Y-85987000D02*
X100958000Y-85987000D01*
X115382000Y-80787700D02*
X116438000Y-79732300D01*
X112126700Y-80787700D02*
X115382000Y-80787700D01*
D34*
%TO.N,Net-(D3-A)*%
X132048000Y-52860300D02*
X132048000Y-51098700D01*
X132048000Y-54622000D02*
X132048000Y-52860300D01*
X132754000Y-55327800D02*
X132048000Y-54622000D01*
X132048000Y-52860300D02*
X132047900Y-52860200D01*
X132754000Y-56452900D02*
X132754000Y-55327800D01*
X132047900Y-52860200D02*
X132047900Y-51098700D01*
%TO.N,Net-(D4-A)*%
X145809000Y-52523800D02*
X146667000Y-53381500D01*
X146667000Y-53381500D02*
X146667000Y-56452900D01*
X145809000Y-51811200D02*
X145809000Y-52523800D01*
D35*
%TO.N,/Output1/Output*%
X115260000Y-94588800D02*
X117769000Y-92079500D01*
X112173000Y-94588800D02*
X115260000Y-94588800D01*
X99515000Y-91067000D02*
X102591000Y-91067000D01*
X102591000Y-91067000D02*
X106113000Y-94588800D01*
X106113000Y-94588800D02*
X112173000Y-94588800D01*
%TO.N,Net-(D6-K)*%
X142583000Y-128390000D02*
X142549000Y-128424000D01*
X142583000Y-125605000D02*
X142583000Y-128390000D01*
D34*
%TO.N,LED*%
X157950000Y-115809500D02*
X157950000Y-115247000D01*
X156405000Y-113935000D02*
X156405000Y-80651100D01*
X157950000Y-115247000D02*
X157717000Y-115247000D01*
X157717000Y-115247000D02*
X156405000Y-113935000D01*
D35*
%TO.N,/Output2/Output*%
X102131000Y-98762700D02*
X102131000Y-107028000D01*
X102131000Y-107028000D02*
X105395000Y-110292000D01*
X105395000Y-110292000D02*
X112151800Y-110292000D01*
X99515000Y-96147000D02*
X102131000Y-98762700D01*
%TO.N,Net-(IC1-ERROR_FLAG)*%
X132192000Y-128424000D02*
X131826000Y-128059000D01*
X137126700Y-128424000D02*
X132192000Y-128424000D01*
D34*
%TO.N,RXttl*%
X174007000Y-109103000D02*
X175196000Y-107913000D01*
X175196000Y-107913000D02*
X175196000Y-100695000D01*
X175196000Y-100695000D02*
X174509000Y-100007000D01*
X159076000Y-88432000D02*
X157950500Y-88432000D01*
X166989000Y-94782000D02*
X165192000Y-94782000D01*
X174509000Y-100007000D02*
X172214000Y-100007000D01*
X165192000Y-94782000D02*
X159076000Y-88665200D01*
X174007000Y-109690500D02*
X174007000Y-109103000D01*
X172214000Y-100007000D02*
X166989000Y-94782000D01*
X159076000Y-88665200D02*
X159076000Y-88432000D01*
%TO.N,Input1*%
X159875400Y-98820700D02*
X159875400Y-100858600D01*
X158231800Y-97177100D02*
X159875400Y-98820700D01*
X157950500Y-96052000D02*
X157950500Y-97177100D01*
X157950500Y-97177100D02*
X158231800Y-97177100D01*
%TO.N,Input2*%
X141074800Y-68965700D02*
X141320400Y-68720100D01*
X138167400Y-68965700D02*
X141074800Y-68965700D01*
X142445500Y-68720100D02*
X141320400Y-68720100D01*
%TO.N,Input3*%
X151546000Y-56104600D02*
X151313200Y-55871800D01*
X151313200Y-55871800D02*
X151313200Y-52890000D01*
X151546000Y-57229700D02*
X151546000Y-56104600D01*
%TO.N,Net-(Q7-Pad1)*%
X119841200Y-98617400D02*
X122529500Y-98617400D01*
D33*
%TO.N,Net-(Q8-Pad1)*%
X108279500Y-132419000D02*
X103819000Y-132419000D01*
X103819000Y-132419000D02*
X103779500Y-132458500D01*
X103779500Y-132458500D02*
X103740000Y-132498000D01*
%TO.N,Net-(Q8-Pad3)*%
X110987100Y-137554900D02*
X110187000Y-138355000D01*
X110187000Y-140569000D02*
X110187000Y-138355000D01*
X106687000Y-138355000D02*
X106687000Y-139605000D01*
X110187000Y-138355000D02*
X106687000Y-138355000D01*
D34*
X110987100Y-137554900D02*
X110986800Y-137554900D01*
D33*
X113360000Y-135182000D02*
X110987100Y-137554900D01*
X113360000Y-132419000D02*
X113360000Y-135182000D01*
D34*
X110986800Y-137554900D02*
X110187100Y-138354600D01*
X106687100Y-139605100D02*
X106687100Y-140854600D01*
D33*
X106687000Y-139605000D02*
X106687000Y-140855000D01*
X106687000Y-140855000D02*
X110186700Y-140855000D01*
D34*
X106687000Y-139605000D02*
X106687100Y-139605100D01*
%TO.N,Net-(Q10-Pad1)*%
X112152000Y-107752000D02*
X113437000Y-107752000D01*
X113437000Y-107752000D02*
X118886000Y-113200000D01*
X118886000Y-113200000D02*
X119794000Y-113200000D01*
X119794000Y-113200000D02*
X119794000Y-114325600D01*
%TO.N,Reset*%
X149037000Y-92377100D02*
X148671000Y-92377100D01*
X151048000Y-81261100D02*
X151048000Y-82386200D01*
X149960000Y-91453900D02*
X149037000Y-92377100D01*
X151048000Y-82386200D02*
X149960000Y-83474200D01*
X148671000Y-92377100D02*
X148671000Y-93552200D01*
X157950000Y-85892000D02*
X157950000Y-84766900D01*
X157950000Y-84766900D02*
X159376000Y-83341300D01*
X159376000Y-83341300D02*
X159376000Y-80957600D01*
X149960000Y-83474200D02*
X149960000Y-91453900D01*
%TO.N,D8*%
X172832000Y-106094000D02*
X172832000Y-110738000D01*
X160346000Y-117642000D02*
X159076000Y-118912000D01*
X165927000Y-117642000D02*
X160346000Y-117642000D01*
X159076000Y-118912000D02*
X157950500Y-118912000D01*
X174007000Y-104918000D02*
X172832000Y-106094000D01*
X174007000Y-104330500D02*
X174007000Y-104918000D01*
X172832000Y-110738000D02*
X165927000Y-117642000D01*
%TO.N,D10*%
X174007000Y-102378000D02*
X174007000Y-101790500D01*
X165852000Y-115247000D02*
X166696000Y-114403000D01*
X173176000Y-102378000D02*
X174007000Y-102378000D01*
X165570000Y-116372000D02*
X165570000Y-115247000D01*
X166696000Y-108859000D02*
X173176000Y-102378000D01*
X165570000Y-115247000D02*
X165852000Y-115247000D01*
X166696000Y-114403000D02*
X166696000Y-108859000D01*
%TO.N,MOSI*%
X151211000Y-91012200D02*
X151211000Y-92187300D01*
X151211000Y-92187300D02*
X151579000Y-92187300D01*
X151579000Y-92187300D02*
X155680000Y-96288900D01*
X155680000Y-96288900D02*
X155680000Y-110092000D01*
%TO.N,Net-(Q1-D)*%
X110043000Y-69882100D02*
X110043000Y-65948200D01*
X111168000Y-70304100D02*
X110465000Y-70304100D01*
X110741000Y-64036500D02*
X110741100Y-64036400D01*
X110465000Y-70304100D02*
X110043000Y-69882100D01*
X110741000Y-65249900D02*
X110741000Y-64036500D01*
X110043000Y-65948200D02*
X110741000Y-65249900D01*
X110741100Y-64036400D02*
X110741100Y-62823200D01*
X110741000Y-64036500D02*
X110741000Y-62823200D01*
X111168000Y-71429200D02*
X111168000Y-70304100D01*
%TO.N,Net-(Q4-D)*%
X129422000Y-66624000D02*
X125622000Y-62823200D01*
X130547000Y-70943100D02*
X130547000Y-70380600D01*
X129844000Y-70380600D02*
X129422000Y-69958700D01*
X125622000Y-62823200D02*
X124771400Y-62823200D01*
X130547000Y-70380600D02*
X129844000Y-70380600D01*
X129422000Y-69958700D02*
X129422000Y-66624000D01*
%TO.N,Net-(R25-Pad2)*%
X151546000Y-65974800D02*
X151215000Y-66305600D01*
X151215000Y-67116100D02*
X151215000Y-67926700D01*
X151215000Y-66305600D02*
X151215000Y-67116100D01*
X151546000Y-64849700D02*
X151546000Y-65974800D01*
X151215200Y-67116300D02*
X151215200Y-67926700D01*
X151215000Y-67116100D02*
X151215200Y-67116300D01*
%TD*%
M02*
